<svg version="1.2" xmlns="http://www.w3.org/2000/svg" viewBox="0 0 1000 1000" width="1000" height="1000">
	<defs>
		<linearGradient id="g1" x2="1" gradientUnits="userSpaceOnUse" gradientTransform="matrix(55.821,0,0,42.908,206.321,429.356)">
			<stop offset="0" stop-color="#cb0404"/>
			<stop offset=".241" stop-color="#cb0404"/>
			<stop offset="1" stop-color="#800300"/>
		</linearGradient>
		<linearGradient id="g2" x2="1" gradientUnits="userSpaceOnUse" gradientTransform="matrix(55.821,0,0,42.908,204.831,429.356)">
			<stop offset="0" stop-color="#800300"/>
			<stop offset=".759" stop-color="#b60501"/>
		</linearGradient>
		<linearGradient id="g3" x2="1" gradientUnits="userSpaceOnUse" gradientTransform="matrix(-92.571,0,0,-92.571,754.21,561.756)">
			<stop offset="0" stop-color="#110606"/>
			<stop offset="1" stop-color="#090607"/>
		</linearGradient>
		<linearGradient id="g4" x2="1" gradientUnits="userSpaceOnUse" gradientTransform="matrix(434.414,0,0,100.284,234.231,458.607)">
			<stop offset="0" stop-color="#141414"/>
			<stop offset="1" stop-color="#000000"/>
		</linearGradient>
		<linearGradient id="g5" x2="1" gradientUnits="userSpaceOnUse" gradientTransform="matrix(0,-132.117,633.799,0,534.375,540.3)">
			<stop offset="0" stop-color="#9f0104"/>
			<stop offset=".29" stop-color="#b50304"/>
			<stop offset="1" stop-color="#cb0404"/>
		</linearGradient>
		<linearGradient id="g6" x2="1" gradientUnits="userSpaceOnUse" gradientTransform="matrix(0,-70.84,560.996,0,578.584,541.79)">
			<stop offset="0" stop-color="#b60501"/>
			<stop offset=".706" stop-color="#d11112"/>
			<stop offset=".995" stop-color="#ed1c24"/>
		</linearGradient>
		<linearGradient id="g7" x2="1" gradientUnits="userSpaceOnUse" gradientTransform="matrix(0,-28.308,91.031,0,819.359,541.295)">
			<stop offset="0" stop-color="#b60501"/>
			<stop offset=".706" stop-color="#d11112"/>
			<stop offset=".995" stop-color="#ed1c24"/>
		</linearGradient>
		<linearGradient id="g8" x2="1" gradientUnits="userSpaceOnUse" gradientTransform="matrix(94.465,0,0,75.984,141.893,424.936)">
			<stop offset="0" stop-color="#cb0404"/>
			<stop offset=".71" stop-color="#b50304"/>
			<stop offset="1" stop-color="#9f0104"/>
		</linearGradient>
		<linearGradient id="g9" x2="1" gradientUnits="userSpaceOnUse" gradientTransform="matrix(94.465,0,0,75.984,140.204,424.936)">
			<stop offset="0" stop-color="#9f0104"/>
			<stop offset=".29" stop-color="#b50304"/>
			<stop offset="1" stop-color="#cb0404"/>
		</linearGradient>
		<linearGradient id="g10" x2="1" gradientUnits="userSpaceOnUse" gradientTransform="matrix(0,-33.075,119.538,0,410.502,495.705)">
			<stop offset="0" stop-color="#800300"/>
			<stop offset=".759" stop-color="#cb0404"/>
			<stop offset="1" stop-color="#cb0404"/>
		</linearGradient>
		<linearGradient id="g11" x2="1" gradientUnits="userSpaceOnUse" gradientTransform="matrix(36.539,0,0,26.024,288.393,471.602)">
			<stop offset="0" stop-color="#800300"/>
			<stop offset=".759" stop-color="#cb0404"/>
			<stop offset="1" stop-color="#cb0404"/>
		</linearGradient>
		<linearGradient id="g12" x2="1" gradientUnits="userSpaceOnUse" gradientTransform="matrix(27.335,0,0,15.718,521.484,460.842)">
			<stop offset="0" stop-color="#b60501"/>
			<stop offset=".706" stop-color="#d11112"/>
			<stop offset=".995" stop-color="#ed1c24"/>
		</linearGradient>
		<linearGradient id="g13" x2="1" gradientUnits="userSpaceOnUse" gradientTransform="matrix(16.654,0,0,10.529,532.697,452.006)">
			<stop offset="0" stop-color="#800300"/>
			<stop offset=".759" stop-color="#cb0404"/>
			<stop offset="1" stop-color="#cb0404"/>
		</linearGradient>
		<linearGradient id="g14" x2="1" gradientUnits="userSpaceOnUse" gradientTransform="matrix(18.988,0,0,10.781,535.104,451.551)">
			<stop offset="0" stop-color="#9f0104"/>
			<stop offset="1" stop-color="#cb0404"/>
		</linearGradient>
		<linearGradient id="g15" x2="1" gradientUnits="userSpaceOnUse" gradientTransform="matrix(0,-43.951,112.547,0,591.383,546.435)">
			<stop offset="0" stop-color="#800300"/>
			<stop offset=".348" stop-color="#cb0404"/>
			<stop offset="1" stop-color="#ed1c24"/>
		</linearGradient>
		<radialGradient id="g16" cx="0" cy="0" r="1" gradientUnits="userSpaceOnUse" gradientTransform="matrix(43.953,-11.918,11.918,43.953,626.391,556.715)">
			<stop offset="0" stop-color="#6f0201"/>
			<stop offset="1" stop-color="#b60501"/>
		</radialGradient>
		<linearGradient id="g17" x2="1" gradientUnits="userSpaceOnUse" gradientTransform="matrix(43.68,0,0,4.901,602.264,475.503)">
			<stop offset="0" stop-color="#cb0404"/>
			<stop offset="1" stop-color="#ed1c24"/>
		</linearGradient>
		<linearGradient id="g18" x2="1" gradientUnits="userSpaceOnUse" gradientTransform="matrix(43.68,0,0,4.901,602.264,476.025)">
			<stop offset="0" stop-color="#110606"/>
			<stop offset="1" stop-color="#090607"/>
		</linearGradient>
		<linearGradient id="g19" x2="1" gradientUnits="userSpaceOnUse" gradientTransform="matrix(16.984,0,0,9.088,670.318,489.894)">
			<stop offset="0" stop-color="#110606"/>
			<stop offset="1" stop-color="#090607"/>
		</linearGradient>
		<linearGradient id="g20" x2="1" gradientUnits="userSpaceOnUse" gradientTransform="matrix(27.831,0,0,5.931,387.496,416.1)">
			<stop offset="0" stop-color="#6f0201"/>
			<stop offset="1" stop-color="#840200"/>
		</linearGradient>
		<linearGradient id="g21" x2="1" gradientUnits="userSpaceOnUse" gradientTransform="matrix(67.342,0,0,17.384,445.943,453.291)">
			<stop offset="0" stop-color="#cb0404"/>
			<stop offset=".71" stop-color="#b50304"/>
			<stop offset="1" stop-color="#9f0104"/>
		</linearGradient>
		<radialGradient id="g22" cx="0" cy="0" r="1" gradientUnits="userSpaceOnUse" gradientTransform="matrix(50.072,0,0,50.072,229.538,517.06)">
			<stop offset="0" stop-color="#414042"/>
			<stop offset=".84" stop-color="#2a2a2c"/>
			<stop offset="1" stop-color="#131415"/>
		</radialGradient>
		<radialGradient id="g23" cx="0" cy="0" r="1" gradientUnits="userSpaceOnUse" gradientTransform="matrix(-3.129,75.537,-75.537,-3.129,220.971,467.099)">
			<stop offset="0" stop-color="#2a2c2d"/>
			<stop offset="1" stop-color="#131415"/>
		</radialGradient>
		<radialGradient id="g24" cx="0" cy="0" r="1" gradientUnits="userSpaceOnUse" gradientTransform="matrix(28.63,0,0,28.63,222.312,517.581)">
			<stop offset="0" stop-color="#a7a9ac"/>
			<stop offset="1" stop-color="#58595b"/>
		</radialGradient>
		<radialGradient id="g25" cx="0" cy="0" r="1" gradientUnits="userSpaceOnUse" gradientTransform="matrix(25.651,0,0,25.651,222.313,517.581)">
			<stop offset="0" stop-color="#2a2c2d"/>
			<stop offset="1" stop-color="#131415"/>
		</radialGradient>
		<linearGradient id="g26" x2="1" gradientUnits="userSpaceOnUse" gradientTransform="matrix(12.908,0,0,14.172,207.044,498.661)">
			<stop offset="0" stop-color="#2a2c2d"/>
			<stop offset=".46" stop-color="#6d6e71"/>
			<stop offset=".829" stop-color="#4d4f50"/>
		</linearGradient>
		<linearGradient id="g27" x2="1" gradientUnits="userSpaceOnUse" gradientTransform="matrix(12.706,0,0,12.467,202.61,509.507)">
			<stop offset="0" stop-color="#2a2c2d"/>
			<stop offset=".46" stop-color="#6d6e71"/>
			<stop offset=".829" stop-color="#4d4f50"/>
		</linearGradient>
		<linearGradient id="g28" x2="1" gradientUnits="userSpaceOnUse" gradientTransform="matrix(14.327,0,0,13.969,204.66,521.587)">
			<stop offset="0" stop-color="#2a2c2d"/>
			<stop offset=".46" stop-color="#6d6e71"/>
			<stop offset=".829" stop-color="#4d4f50"/>
		</linearGradient>
		<linearGradient id="g29" x2="1" gradientUnits="userSpaceOnUse" gradientTransform="matrix(12.545,0,0,12.962,218.355,524.585)">
			<stop offset="0" stop-color="#2a2c2d"/>
			<stop offset=".46" stop-color="#6d6e71"/>
			<stop offset=".829" stop-color="#4d4f50"/>
		</linearGradient>
		<linearGradient id="g30" x2="1" gradientUnits="userSpaceOnUse" gradientTransform="matrix(13.963,0,0,13.48,227.61,519.412)">
			<stop offset="0" stop-color="#2a2c2d"/>
			<stop offset=".46" stop-color="#6d6e71"/>
			<stop offset=".829" stop-color="#4d4f50"/>
		</linearGradient>
		<linearGradient id="g31" x2="1" gradientUnits="userSpaceOnUse" gradientTransform="matrix(13.647,0,0,11.693,228.391,505.52)">
			<stop offset="0" stop-color="#2a2c2d"/>
			<stop offset=".46" stop-color="#6d6e71"/>
			<stop offset=".829" stop-color="#4d4f50"/>
		</linearGradient>
		<linearGradient id="g32" x2="1" gradientUnits="userSpaceOnUse" gradientTransform="matrix(11.8,0,0,13.26,222.414,498.089)">
			<stop offset="0" stop-color="#2a2c2d"/>
			<stop offset=".46" stop-color="#6d6e71"/>
			<stop offset=".829" stop-color="#4d4f50"/>
		</linearGradient>
		<radialGradient id="g33" cx="0" cy="0" r="1" gradientUnits="userSpaceOnUse" gradientTransform="matrix(8.964,0,0,8.964,222.313,517.581)">
			<stop offset="0" stop-color="#2a2c2d"/>
			<stop offset="1" stop-color="#131415"/>
		</radialGradient>
		<radialGradient id="g34" cx="0" cy="0" r="1" gradientUnits="userSpaceOnUse" gradientTransform="matrix(3.129,7.847,-7.847,3.129,222.205,513.385)">
			<stop offset="0" stop-color="#2a2c2d"/>
			<stop offset="1" stop-color="#131415"/>
		</radialGradient>
		<clipPath clipPathUnits="userSpaceOnUse" id="cp1">
			<path d="m279.61 517.06c0 27.65-22.42 50.07-50.07 50.07-27.66 0-50.07-22.42-50.07-50.07 0-27.65 22.41-50.07 50.07-50.07 27.65 0 50.07 22.42 50.07 50.07z"/>
		</clipPath>
		<radialGradient id="g35" cx="0" cy="0" r="1" gradientUnits="userSpaceOnUse" gradientTransform="matrix(-50.58,0,0,-50.58,227.374,517.044)">
			<stop offset="0" stop-color="#131415"/>
			<stop offset="1" stop-color="#414042"/>
		</radialGradient>
		<radialGradient id="g36" cx="0" cy="0" r="1" gradientUnits="userSpaceOnUse" gradientTransform="matrix(-50.58,0,0,-50.58,224.915,517.044)">
			<stop offset="0" stop-color="#131415"/>
			<stop offset="1" stop-color="#414042"/>
		</radialGradient>
		<radialGradient id="g37" cx="0" cy="0" r="1" gradientUnits="userSpaceOnUse" gradientTransform="matrix(-50.58,0,0,-50.58,222.16,517.044)">
			<stop offset="0" stop-color="#131415"/>
			<stop offset="1" stop-color="#414042"/>
		</radialGradient>
		<radialGradient id="g38" cx="0" cy="0" r="1" gradientUnits="userSpaceOnUse" gradientTransform="matrix(-50.072,0,0,-50.072,731.32,517.544)">
			<stop offset="0" stop-color="#414042"/>
			<stop offset=".84" stop-color="#2a2a2c"/>
			<stop offset="1" stop-color="#131415"/>
		</radialGradient>
		<radialGradient id="g39" cx="0" cy="0" r="1" gradientUnits="userSpaceOnUse" gradientTransform="matrix(3.129,-75.537,75.537,3.129,739.262,567.505)">
			<stop offset="0" stop-color="#2a2c2d"/>
			<stop offset="1" stop-color="#131415"/>
		</radialGradient>
		<radialGradient id="g40" cx="0" cy="0" r="1" gradientUnits="userSpaceOnUse" gradientTransform="matrix(-28.63,0,0,-28.63,737.921,517.023)">
			<stop offset="0" stop-color="#a7a9ac"/>
			<stop offset="1" stop-color="#58595b"/>
		</radialGradient>
		<radialGradient id="g41" cx="0" cy="0" r="1" gradientUnits="userSpaceOnUse" gradientTransform="matrix(-25.651,0,0,-25.651,737.921,517.023)">
			<stop offset="0" stop-color="#2a2c2d"/>
			<stop offset="1" stop-color="#131415"/>
		</radialGradient>
		<linearGradient id="g42" x2="1" gradientUnits="userSpaceOnUse" gradientTransform="matrix(-12.908,0,0,-14.172,753.189,535.943)">
			<stop offset="0" stop-color="#2a2c2d"/>
			<stop offset=".46" stop-color="#6d6e71"/>
			<stop offset=".829" stop-color="#4d4f50"/>
		</linearGradient>
		<linearGradient id="g43" x2="1" gradientUnits="userSpaceOnUse" gradientTransform="matrix(-12.706,0,0,-12.467,757.623,525.097)">
			<stop offset="0" stop-color="#2a2c2d"/>
			<stop offset=".46" stop-color="#6d6e71"/>
			<stop offset=".829" stop-color="#4d4f50"/>
		</linearGradient>
		<linearGradient id="g44" x2="1" gradientUnits="userSpaceOnUse" gradientTransform="matrix(-14.327,0,0,-13.969,755.573,513.017)">
			<stop offset="0" stop-color="#2a2c2d"/>
			<stop offset=".46" stop-color="#6d6e71"/>
			<stop offset=".829" stop-color="#4d4f50"/>
		</linearGradient>
		<linearGradient id="g45" x2="1" gradientUnits="userSpaceOnUse" gradientTransform="matrix(-12.545,0,0,-12.962,741.878,510.019)">
			<stop offset="0" stop-color="#2a2c2d"/>
			<stop offset=".46" stop-color="#6d6e71"/>
			<stop offset=".829" stop-color="#4d4f50"/>
		</linearGradient>
		<linearGradient id="g46" x2="1" gradientUnits="userSpaceOnUse" gradientTransform="matrix(-13.963,0,0,-13.48,732.623,515.192)">
			<stop offset="0" stop-color="#2a2c2d"/>
			<stop offset=".46" stop-color="#6d6e71"/>
			<stop offset=".829" stop-color="#4d4f50"/>
		</linearGradient>
		<linearGradient id="g47" x2="1" gradientUnits="userSpaceOnUse" gradientTransform="matrix(-13.647,0,0,-11.693,731.842,529.084)">
			<stop offset="0" stop-color="#2a2c2d"/>
			<stop offset=".46" stop-color="#6d6e71"/>
			<stop offset=".829" stop-color="#4d4f50"/>
		</linearGradient>
		<linearGradient id="g48" x2="1" gradientUnits="userSpaceOnUse" gradientTransform="matrix(-11.8,0,0,-13.26,737.82,536.515)">
			<stop offset="0" stop-color="#2a2c2d"/>
			<stop offset=".46" stop-color="#6d6e71"/>
			<stop offset=".829" stop-color="#4d4f50"/>
		</linearGradient>
		<radialGradient id="g49" cx="0" cy="0" r="1" gradientUnits="userSpaceOnUse" gradientTransform="matrix(-8.964,0,0,-8.964,737.921,517.023)">
			<stop offset="0" stop-color="#2a2c2d"/>
			<stop offset="1" stop-color="#131415"/>
		</radialGradient>
		<radialGradient id="g50" cx="0" cy="0" r="1" gradientUnits="userSpaceOnUse" gradientTransform="matrix(1.341,9.759,-9.759,1.341,738.298,512.839)">
			<stop offset="0" stop-color="#2a2c2d"/>
			<stop offset="1" stop-color="#131415"/>
		</radialGradient>
		<clipPath clipPathUnits="userSpaceOnUse" id="cp2">
			<path d="m680.62 517.54c0-27.65 22.42-50.07 50.07-50.07 27.66 0 50.08 22.42 50.08 50.07 0 27.66-22.42 50.08-50.08 50.08-27.65 0-50.07-22.42-50.07-50.08z"/>
		</clipPath>
		<radialGradient id="g51" cx="0" cy="0" r="1" gradientUnits="userSpaceOnUse" gradientTransform="matrix(50.565,0,0,50.565,732.859,517.559)">
			<stop offset="0" stop-color="#131415"/>
			<stop offset="1" stop-color="#414042"/>
		</radialGradient>
		<radialGradient id="g52" cx="0" cy="0" r="1" gradientUnits="userSpaceOnUse" gradientTransform="matrix(50.565,0,0,50.565,735.319,517.559)">
			<stop offset="0" stop-color="#131415"/>
			<stop offset="1" stop-color="#414042"/>
		</radialGradient>
		<radialGradient id="g53" cx="0" cy="0" r="1" gradientUnits="userSpaceOnUse" gradientTransform="matrix(50.565,0,0,50.565,738.073,517.559)">
			<stop offset="0" stop-color="#131415"/>
			<stop offset="1" stop-color="#414042"/>
		</radialGradient>
		<linearGradient id="g54" x2="1" gradientUnits="userSpaceOnUse" gradientTransform="matrix(221.013,0,0,61.634,231.246,408.183)">
			<stop offset="0" stop-color="#cb0404"/>
			<stop offset=".71" stop-color="#b50304"/>
			<stop offset="1" stop-color="#9f0104"/>
		</linearGradient>
		<linearGradient id="g55" x2="1" gradientUnits="userSpaceOnUse" gradientTransform="matrix(3.733,-0.206,1.4,25.389,449.062,412.078)">
			<stop offset="0" stop-color="#6f0201"/>
			<stop offset=".706" stop-color="#920401"/>
			<stop offset=".995" stop-color="#b60501"/>
		</linearGradient>
		<linearGradient id="g56" x2="1" gradientUnits="userSpaceOnUse" gradientTransform="matrix(-23.088,26.684,-12.363,-10.697,541.889,486.087)">
			<stop offset="0" stop-color="#110606"/>
			<stop offset="1" stop-color="#090607"/>
		</linearGradient>
		<radialGradient id="g57" cx="0" cy="0" r="1" gradientUnits="userSpaceOnUse" gradientTransform="matrix(83.924,0,0,83.924,470.699,519.909)">
			<stop offset="0" stop-color="#ffffff"/>
			<stop offset=".772" stop-color="#b78080"/>
			<stop offset=".989" stop-color="#6f0201"/>
		</radialGradient>
		<radialGradient id="g58" cx="0" cy="0" r="1" gradientUnits="userSpaceOnUse" gradientTransform="matrix(40.025,-1.887,1.887,40.025,488.346,490.045)">
			<stop offset="0" stop-color="#ffffff"/>
			<stop offset=".772" stop-color="#b78080"/>
			<stop offset=".989" stop-color="#6f0201"/>
		</radialGradient>
		<radialGradient id="g59" cx="0" cy="0" r="1" gradientUnits="userSpaceOnUse" gradientTransform="matrix(47.598,3.346,-3.346,47.598,603.925,474.041)">
			<stop offset="0" stop-color="#ffffff"/>
			<stop offset=".772" stop-color="#b78080"/>
			<stop offset=".989" stop-color="#6f0201"/>
		</radialGradient>
		<radialGradient id="g60" cx="0" cy="0" r="1" gradientUnits="userSpaceOnUse" gradientTransform="matrix(47.718,-0.18,.18,47.718,533.189,510.003)">
			<stop offset="0" stop-color="#ffffff"/>
			<stop offset=".772" stop-color="#b78080"/>
			<stop offset=".989" stop-color="#6f0201"/>
		</radialGradient>
		<radialGradient id="g61" cx="0" cy="0" r="1" gradientUnits="userSpaceOnUse" gradientTransform="matrix(47.715,.609,-0.609,47.715,369.632,509.02)">
			<stop offset="0" stop-color="#ffffff"/>
			<stop offset=".772" stop-color="#b78080"/>
			<stop offset=".989" stop-color="#6f0201"/>
		</radialGradient>
		<radialGradient id="g62" cx="0" cy="0" r="1" gradientUnits="userSpaceOnUse" gradientTransform="matrix(-2.099,47.671,-47.671,-2.099,155.914,453.626)">
			<stop offset="0" stop-color="#ffffff"/>
			<stop offset=".772" stop-color="#b78080"/>
			<stop offset=".989" stop-color="#6f0201"/>
		</radialGradient>
		<radialGradient id="g63" cx="0" cy="0" r="1" gradientUnits="userSpaceOnUse" gradientTransform="matrix(-75.53,49.758,-49.758,-75.53,499.469,475.096)">
			<stop offset="0" stop-color="#f1f2f2"/>
			<stop offset=".425" stop-color="#787979"/>
			<stop offset=".989" stop-color="#000000"/>
		</radialGradient>
		<radialGradient id="g64" cx="0" cy="0" r="1" gradientUnits="userSpaceOnUse" gradientTransform="matrix(-42.136,27.758,-27.758,-42.136,470.437,463.44)">
			<stop offset="0" stop-color="#f1f2f2"/>
			<stop offset=".425" stop-color="#787979"/>
			<stop offset=".989" stop-color="#000000"/>
		</radialGradient>
		<radialGradient id="g65" cx="0" cy="0" r="1" gradientUnits="userSpaceOnUse" gradientTransform="matrix(-50.025,3.951,-3.951,-50.025,226.671,465.866)">
			<stop offset="0" stop-color="#f1f2f2"/>
			<stop offset=".425" stop-color="#787979"/>
			<stop offset=".989" stop-color="#000000"/>
		</radialGradient>
		<radialGradient id="g66" cx="0" cy="0" r="1" gradientUnits="userSpaceOnUse" gradientTransform="matrix(-50.025,3.951,-3.951,-50.025,743.359,467.654)">
			<stop offset="0" stop-color="#f1f2f2"/>
			<stop offset=".425" stop-color="#787979"/>
			<stop offset=".989" stop-color="#000000"/>
		</radialGradient>
		<radialGradient id="g67" cx="0" cy="0" r="1" gradientUnits="userSpaceOnUse" gradientTransform="matrix(-77.869,54.032,-54.032,-77.869,391.902,368.869)">
			<stop offset="0" stop-color="#f1f2f2"/>
			<stop offset=".425" stop-color="#787979"/>
			<stop offset=".989" stop-color="#000000"/>
		</radialGradient>
		<radialGradient id="g68" cx="0" cy="0" r="1" gradientUnits="userSpaceOnUse" gradientTransform="matrix(-10.7,2.973,-2.973,-10.7,557.626,454.682)">
			<stop offset="0" stop-color="#f1f2f2"/>
			<stop offset=".425" stop-color="#787979"/>
			<stop offset=".989" stop-color="#000000"/>
		</radialGradient>
		<radialGradient id="g69" cx="0" cy="0" r="1" gradientUnits="userSpaceOnUse" gradientTransform="matrix(-47.924,-50.051,50.051,-47.924,593.814,521.773)">
			<stop offset="0" stop-color="#f1f2f2"/>
			<stop offset=".425" stop-color="#787979"/>
			<stop offset=".989" stop-color="#000000"/>
		</radialGradient>
		<radialGradient id="g70" cx="0" cy="0" r="1" gradientUnits="userSpaceOnUse" gradientTransform="matrix(26.037,0,0,26.037,817.783,498.685)">
			<stop offset="0" stop-color="#f1f2f2"/>
			<stop offset=".425" stop-color="#787979"/>
			<stop offset=".989" stop-color="#000000"/>
		</radialGradient>
		<radialGradient id="g71" cx="0" cy="0" r="1" gradientUnits="userSpaceOnUse" gradientTransform="matrix(-48.669,25.527,-25.527,-48.669,859.425,510.902)">
			<stop offset="0" stop-color="#f1f2f2"/>
			<stop offset=".425" stop-color="#787979"/>
			<stop offset=".989" stop-color="#000000"/>
		</radialGradient>
		<radialGradient id="g72" cx="0" cy="0" r="1" gradientUnits="userSpaceOnUse" gradientTransform="matrix(-58.095,30.47,-30.47,-58.095,647.55,498.86)">
			<stop offset="0" stop-color="#f1f2f2"/>
			<stop offset=".425" stop-color="#787979"/>
			<stop offset=".989" stop-color="#000000"/>
		</radialGradient>
		<radialGradient id="g73" cx="0" cy="0" r="1" gradientUnits="userSpaceOnUse" gradientTransform="matrix(-15.495,17.059,-17.059,-15.495,464.086,435.216)">
			<stop offset="0" stop-color="#f1f2f2"/>
			<stop offset=".425" stop-color="#787979"/>
			<stop offset=".989" stop-color="#000000"/>
		</radialGradient>
		<radialGradient id="g74" cx="0" cy="0" r="1" gradientUnits="userSpaceOnUse" gradientTransform="matrix(-48.371,-4.37,4.37,-48.371,496.491,441.871)">
			<stop offset="0" stop-color="#f1f2f2"/>
			<stop offset=".425" stop-color="#787979"/>
			<stop offset=".989" stop-color="#000000"/>
		</radialGradient>
		<radialGradient id="g75" cx="0" cy="0" r="1" gradientUnits="userSpaceOnUse" gradientTransform="matrix(-14.675,-29.127,29.127,-14.675,317.706,486.319)">
			<stop offset="0" stop-color="#f1f2f2"/>
			<stop offset=".425" stop-color="#787979"/>
			<stop offset=".989" stop-color="#000000"/>
		</radialGradient>
		<radialGradient id="g76" cx="0" cy="0" r="1" gradientUnits="userSpaceOnUse" gradientTransform="matrix(-21.955,-43.576,43.576,-21.955,238.334,445.501)">
			<stop offset="0" stop-color="#f1f2f2"/>
			<stop offset=".425" stop-color="#787979"/>
			<stop offset=".989" stop-color="#000000"/>
		</radialGradient>
		<radialGradient id="g77" cx="0" cy="0" r="1" gradientUnits="userSpaceOnUse" gradientTransform="matrix(-8.678,5.475,-5.475,-8.678,590.055,461.438)">
			<stop offset="0" stop-color="#f1f2f2"/>
			<stop offset=".425" stop-color="#787979"/>
			<stop offset=".989" stop-color="#000000"/>
		</radialGradient>
		<radialGradient id="g78" cx="0" cy="0" r="1" gradientUnits="userSpaceOnUse" gradientTransform="matrix(2.794,-11.509,11.509,2.794,640.823,554.219)">
			<stop offset="0" stop-color="#f1f2f2"/>
			<stop offset=".425" stop-color="#787979"/>
			<stop offset=".989" stop-color="#000000"/>
		</radialGradient>
	</defs>
	<style>
		.s0 { fill: url(#g1) } 
		.s1 { fill: url(#g2) } 
		.s2 { fill: #930303 } 
		.s3 { fill: #110606 } 
		.s4 { fill: url(#g3) } 
		.s5 { fill: url(#g4) } 
		.s6 { fill: url(#g5) } 
		.s7 { fill: #e04d50 } 
		.s8 { fill: url(#g6) } 
		.s9 { fill: #0b0d0c } 
		.s10 { fill: url(#g7) } 
		.s11 { fill: #363235 } 
		.s12 { fill: url(#g8) } 
		.s13 { fill: url(#g9) } 
		.s14 { fill: none;stroke: #231f20;stroke-miterlimit:10 } 
		.s15 { fill: url(#g10) } 
		.s16 { fill: url(#g11) } 
		.s17 { fill: url(#g12) } 
		.s18 { fill: url(#g13) } 
		.s19 { fill: url(#g14) } 
		.s20 { fill: url(#g15) } 
		.s21 { fill: url(#g16) } 
		.s22 { fill: url(#g17) } 
		.s23 { fill: url(#g18) } 
		.s24 { fill: #211e1e } 
		.s25 { fill: url(#g19) } 
		.s26 { fill: url(#g20) } 
		.s27 { fill: url(#g21) } 
		.s28 { fill: url(#g22) } 
		.s29 { fill: url(#g23) } 
		.s30 { fill: url(#g24) } 
		.s31 { fill: url(#g25) } 
		.s32 { fill: #090907 } 
		.s33 { fill: url(#g26) } 
		.s34 { fill: url(#g27) } 
		.s35 { fill: url(#g28) } 
		.s36 { fill: url(#g29) } 
		.s37 { fill: url(#g30) } 
		.s38 { fill: url(#g31) } 
		.s39 { fill: url(#g32) } 
		.s40 { fill: url(#g33) } 
		.s41 { fill: url(#g34) } 
		.s42 { fill: #818084 } 
		.s43 { fill: url(#g35) } 
		.s44 { fill: url(#g36) } 
		.s45 { fill: url(#g37) } 
		.s46 { fill: #5b5b5b } 
		.s47 { fill: url(#g38) } 
		.s48 { fill: url(#g39) } 
		.s49 { fill: url(#g40) } 
		.s50 { fill: url(#g41) } 
		.s51 { fill: url(#g42) } 
		.s52 { fill: url(#g43) } 
		.s53 { fill: url(#g44) } 
		.s54 { fill: url(#g45) } 
		.s55 { fill: url(#g46) } 
		.s56 { fill: url(#g47) } 
		.s57 { fill: url(#g48) } 
		.s58 { fill: url(#g49) } 
		.s59 { fill: url(#g50) } 
		.s60 { fill: url(#g51) } 
		.s61 { fill: url(#g52) } 
		.s62 { fill: url(#g53) } 
		.s63 { fill: url(#g54) } 
		.s64 { fill: url(#g55) } 
		.s65 { fill: url(#g56) } 
		.s66 { fill: #161616 } 
		.s67 { opacity: .35;mix-blend-mode: multiply;fill: url(#g57) } 
		.s68 { opacity: .35;mix-blend-mode: multiply;fill: url(#g58) } 
		.s69 { opacity: .35;mix-blend-mode: multiply;fill: url(#g59) } 
		.s70 { opacity: .35;mix-blend-mode: multiply;fill: url(#g60) } 
		.s71 { opacity: .35;mix-blend-mode: multiply;fill: url(#g61) } 
		.s72 { opacity: .35;mix-blend-mode: multiply;fill: url(#g62) } 
		.s73 { fill: #ffffff } 
		.s74 { opacity: .35;mix-blend-mode: screen;fill: url(#g63) } 
		.s75 { opacity: .35;mix-blend-mode: screen;fill: url(#g64) } 
		.s76 { opacity: .38;mix-blend-mode: screen;fill: url(#g65) } 
		.s77 { opacity: .38;mix-blend-mode: screen;fill: url(#g66) } 
		.s78 { mix-blend-mode: screen;fill: url(#g67) } 
		.s79 { mix-blend-mode: screen;fill: url(#g68) } 
		.s80 { opacity: .3;mix-blend-mode: screen;fill: url(#g69) } 
		.s81 { opacity: .35;mix-blend-mode: screen;fill: url(#g70) } 
		.s82 { opacity: .35;mix-blend-mode: screen;fill: url(#g71) } 
		.s83 { opacity: .3;mix-blend-mode: screen;fill: url(#g72) } 
		.s84 { mix-blend-mode: screen;fill: url(#g73) } 
		.s85 { mix-blend-mode: screen;fill: url(#g74) } 
		.s86 { opacity: .36;mix-blend-mode: screen;fill: url(#g75) } 
		.s87 { opacity: .36;mix-blend-mode: screen;fill: url(#g76) } 
		.s88 { mix-blend-mode: screen;fill: url(#g77) } 
		.s89 { opacity: .3;mix-blend-mode: screen;fill: url(#g78) } 
	</style>
	<g id="OBJECTS">
		<g id="&lt;Group&gt;">
			<g id="&lt;Group&gt;">
				<g id="&lt;Group&gt;">
					<path id="&lt;Path&gt;" class="s0" d="m232.94 429.36h25.4c2.1 0 3.8 1.7 3.8 3.8v29.77l-55.82 9.33z"/>
					<path id="&lt;Path&gt;" class="s1" d="m231.45 429.36h25.4c2.1 0 3.8 1.7 3.8 3.8v29.77l-55.82 9.33z"/>
					<path id="&lt;Path&gt;" class="s2" d="m249.22 454.29h-25.82c-0.47 0-0.85-0.38-0.85-0.85 0-0.46 0.38-0.84 0.85-0.84h25.82c0.47 0 0.85 0.38 0.85 0.84 0 0.47-0.38 0.85-0.85 0.85z"/>
					<path id="&lt;Path&gt;" class="s2" d="m249.22 450.21h-25.82c-0.47 0-0.85-0.37-0.85-0.84 0-0.47 0.38-0.84 0.85-0.84h25.82c0.47 0 0.85 0.37 0.85 0.84 0 0.47-0.38 0.84-0.85 0.84z"/>
					<path id="&lt;Path&gt;" class="s2" d="m249.22 446.14h-25.82c-0.47 0-0.85-0.38-0.85-0.84 0-0.47 0.38-0.85 0.85-0.85h25.82c0.47 0 0.85 0.38 0.85 0.85 0 0.46-0.38 0.84-0.85 0.84z"/>
					<path id="&lt;Path&gt;" class="s2" d="m249.22 442.07h-25.82c-0.47 0-0.85-0.38-0.85-0.84 0-0.47 0.38-0.85 0.85-0.85h25.82c0.47 0 0.85 0.38 0.85 0.85 0 0.46-0.38 0.84-0.85 0.84z"/>
					<path id="&lt;Path&gt;" class="s3" d="m427.62 411.28c0 0 0.64-7.45-6.51-10.28 0 0 16.84-4.17 22.3-2.93 5.46 1.24 7.65 13.9 7.65 13.9z"/>
					<path id="&lt;Path&gt;" class="s4" d="m661.64 515.47c0-25.56 20.72-46.28 46.28-46.28 25.57 0 46.29 20.72 46.29 46.28 0 25.56-20.72 46.29-46.29 46.29-25.56 0-46.28-20.73-46.28-46.29z"/>
					<path id="&lt;Path&gt;" class="s5" d="m272.52 458.61c0 0 16.99 4.32 22.05 13.26 5.07 8.94 8.79 16.39 13.71 19.37 4.91 2.98 18.17 5.58 18.17 5.58l108.02 11.4 143.53 7.25 63.76 29.55c0 0 30 9.39 26.62 12.76-3.38 3.38-409.81-1.78-413.59-4.57-3.77-2.78-3.47-72.3-11.02-78.07-7.55-5.76-9.54-7.44-9.54-7.44z"/>
					<path id="&lt;Path&gt;" class="s6" d="m865.04 513.58h-211.26l-117.1 13.01-142.44 13.71-46.63-3.33c0 0 14.3-4.61-7.6-16.53 0 0 10.58-6.56 24.59-5.52 14 1.05 52.44 0.3 63.46-5.81 0 0-84.77-7.45-96.54-10.43-3.04-0.76-6.17-1.4-9.28-2.19-8.94-2.3-17.61-5.98-22.85-18.37-1.53-3.61-4.71-6.32-9-8.3-13.94-6.43-39.65-5.16-59.14-1.83 16.17-3.5 59-12.01 83.54-24.83 30.78-16.09 41.31-30.59 60.58-33.97 19.27-3.37 75.69 2.78 75.69 2.78l0.59 25.23-6.61 0.75-1.33 0.14-0.9 7.26 14.12-3.22c3.49-0.8 6.98 1.4 7.76 4.9l0.77 3.48 4.71 2.78 1.35 0.8 8.11 0.3c6.13 0.22 12.08 2.13 17.21 5.49l16.44 10.79 55.18-2.28 10.03 0.5 8.34-3.27c1.41-0.56 3.02-0.31 4.2 0.64l3.85 3.12 6.28 0.08 95.23 1.21c0 0 103.7 5.07 168.65 42.91z"/>
					<path id="&lt;Path&gt;" class="s7" d="m865.04 513.58h-211.26l-117.1 13.01-142.44 13.71-46.63-3.33c0 0 14.3-4.61-7.6-16.53 0 0 10.27-9.89 24.28-8.84 14 1.04 32.08 2.83 43.11-3.28 0 0-64.11-6.66-75.88-9.64-3.04-0.76-24.36-5.61-27.47-6.4 29.65-5.19 94.87-8.74 116.06-9.79 32.18-1.58 53.54-2.43 53.54-2.43 0 0 54.09-6.9 127.51-10.6l95.23 1.21c0 0 103.7 5.07 168.65 42.91z"/>
					<path id="&lt;Path&gt;" class="s8" d="m863.55 515.07h-211.26l-117.1 13.01-142.44 13.71-46.63-3.33c0 0 14.3-4.61-7.6-16.53 0 0 10.27-9.89 24.28-8.84 14 1.04 32.08 2.83 43.11-3.28 0 0-64.11-6.66-75.88-9.64-3.04-0.76-24.36-7.32-27.47-8.12 29.65-5.18 94.87-7.02 116.06-8.07 32.18-1.58 53.54-2.43 53.54-2.43 0 0 54.09-6.9 127.51-10.6l95.23 1.21c0 0 103.7 5.07 168.65 42.91z"/>
					<path id="&lt;Path&gt;" class="s9" d="m811.77 537.32c0 0 27.41 14.6 39.53 15.4 12.12 0.79 12.71-1.49 12.22-3.78-0.5-2.28-7.65-9.43-7.65-9.43z"/>
					<path id="&lt;Path&gt;" class="s10" d="m778.24 541.29h88.43c1.44 0 2.61-1.16 2.61-2.6v-21.53c0-2.3-1.87-4.17-4.18-4.17h-80.9z"/>
					<path id="&lt;Path&gt;" class="s11" d="m776.75 543.53h93.79c0.78 0 1.42-0.63 1.42-1.42 0-0.78-0.64-1.41-1.42-1.41h-92.3c0 0-1.63 2.68-1.49 2.83z"/>
					<path id="&lt;Path&gt;" class="s3" d="m156.68 498.68l3.43 8.94 16.61 2.54 2.46-11.48z"/>
					<path id="&lt;Path&gt;" class="s12" d="m141.9 495.36l1.45-33.92 4.77-7 0.67-13.55c0.13-2.43 2.13-4.33 4.56-4.33h16.03c4.85 0 8.76-3.98 8.66-8.83l-0.02-1.18c-0.02-0.89 0.7-1.61 1.59-1.61h47.73c5.13 0 9.24 4.28 9.01 9.41l-0.66 16.77c-0.23 5.93-5.1 10.62-11.04 10.62-7.98 0-14.46 6.47-14.46 14.45v24.73l-64.11-1.12c-2.4-0.04-4.29-2.04-4.18-4.44z"/>
					<path id="&lt;Path&gt;" class="s13" d="m140.21 495.36l1.45-33.92 4.77-7 0.68-13.55c0.12-2.43 2.12-4.33 4.55-4.33h16.04c4.84 0 8.75-3.98 8.65-8.83l-0.02-1.18c-0.02-0.89 0.7-1.61 1.59-1.61h47.73c5.14 0 9.24 4.28 9.01 9.41l-0.66 16.77c-0.23 5.93-5.1 10.62-11.03 10.62-7.99 0-14.46 6.47-14.46 14.45v24.73l-64.12-1.12c-2.4-0.04-4.28-2.04-4.18-4.44z"/>
					<path id="&lt;Path&gt;" class="s14" d="m225.09 469.57q3.05-0.64 6.38-1.21c-3.6 0.71-5.9 1.12-6.38 1.21z"/>
					<path id="&lt;Path&gt;" class="s7" d="m359.12 480.71l-5-19.27c0 0 91.67 1.93 91.82 2.38 0.15 0.45 27.27 14.45 27.71 16.24 0.45 1.79-80.75 14.3-91.62 14.45-10.88 0.15-8.79-11.32-14.31-12.66-5.51-1.34-8.6-1.14-8.6-1.14z"/>
					<path id="&lt;Path&gt;" class="s15" d="m360.32 481.9l-5.01-19.27c0 0 91.68 1.94 91.82 2.38 0.15 0.45 27.27 14.46 27.72 16.24 0.44 1.79-80.75 14.31-91.63 14.45-10.88 0.15-8.79-11.32-14.3-12.66-5.52-1.34-8.6-1.14-8.6-1.14z"/>
					<path id="&lt;Path&gt;" class="s16" d="m324.93 497.07c-0.79-0.1-21.77 1.42-25.94-0.17-4.17-1.59-12.98-11.39-10-25.3 0 0 11.99 0.07 16.06 6.23 4.07 6.15 3.58 13.41 9.63 15.99 6.06 2.58 10.25 3.25 10.25 3.25z"/>
					<path id="&lt;Path&gt;" class="s3" d="m366.43 477.08c0 0-47.28-6.03-60.29-1.32 0 0 0.7 11.18 8.94 15.12 8.25 3.95 54.73 10.64 54.73 10.64 0 0 0.99-8.44 5.86-11.84 0 0-3.63-5.15-4.17-7.78-0.55-2.63-3.58-5.26-5.07-4.82z"/>
					<path id="&lt;Path&gt;" class="s17" d="m531.35 475.55c-3.72 0.39-9.87 1.01-9.87 1.01l17.73-15.72h9.61l-11.27 11.71c-1.97 2.04-3.38 2.71-6.2 3z"/>
					<path id="&lt;Path&gt;" class="s18" d="m535.8 452.04c-1.51-0.23-2.89 0.86-3 2.38-0.2 2.55-0.22 6.06 1.05 6.77 2.03 1.14 13.01 1.79 14.6 0.99 1.59-0.79 1.19-4.86-2.04-7.15-2.16-1.53-7.39-2.51-10.61-2.99z"/>
					<path id="&lt;Path&gt;" class="s19" d="m551.09 462.33h-3.19c0 0 1.54-4.22-1.24-5.71-2.78-1.49-11.56-4.58-11.56-4.58 0 0 10.42-1.23 14.34 0.21 3.06 1.12 4.58 3.61 4.65 7 0.04 1.69-1.31 3.08-3 3.08z"/>
					<path id="&lt;Path&gt;" class="s7" d="m653.63 536.38l1.49-35.01-61.23 3.72-5.84 9.89c-0.93 1.57-2.5 2.64-4.3 2.93l-3.17 0.51c-1.46 0.24-2.72 1.18-3.36 2.51l-0.91 1.89-7.6 1.19-1.19 5.22-24.44 1.34-0.49 7.62c-0.22 3.3 2.39 6.11 5.7 6.14l104.75 0.99z"/>
					<path id="&lt;Path&gt;" class="s20" d="m654.75 537.5l1.49-35.02-61.24 3.73-5.84 9.89c-0.92 1.57-2.5 2.64-4.29 2.93l-3.17 0.51c-1.46 0.23-2.72 1.17-3.37 2.51l-0.91 1.89-7.59 1.19-1.2 5.21-24.43 1.35-0.5 7.61c-0.21 3.31 2.39 6.12 5.71 6.15l104.74 0.99z"/>
					<path id="&lt;Path&gt;" class="s21" d="m669.05 536.02l-33.15 0.81v10.71c0 2.23 1.81 4.04 4.04 4.05l56 0.13-9.59-9.06c-4.67-4.41-10.89-6.79-17.3-6.64z"/>
					<path id="&lt;Path&gt;" class="s22" d="m603.43 475.5l41.96 0.26c0.69 0.01 0.75 1.02 0.07 1.1l-26.52 3.38c-2.58 0.32-5.19 0.17-7.71-0.45l-8.08-2c-1.34-0.33-1.09-2.3 0.28-2.29z"/>
					<path id="&lt;Path&gt;" class="s23" d="m603.43 476.02l41.96 0.26c0.69 0.01 0.75 1.02 0.07 1.11l-26.52 3.37c-2.58 0.33-5.19 0.17-7.71-0.45l-8.08-2c-1.34-0.33-1.09-2.29 0.28-2.29z"/>
					<path id="&lt;Path&gt;" class="s24" d="m379.15 541.29c0 0 1.63-0.07 4.5-0.2 2.87-0.11 6.96-0.28 11.88-0.48 4.91-0.18 10.64-0.4 16.78-0.64q4.61-0.19 9.45-0.4 2.42-0.12 4.86-0.25 2.44-0.14 4.89-0.31c3.26-0.2 6.48-0.54 9.7-0.89 3.22-0.34 6.38-0.61 9.44-0.88 6.13-0.54 11.85-0.97 16.76-1.29 4.91-0.34 9.01-0.53 11.87-0.7 1.43-0.09 2.56-0.12 3.33-0.16q1.16-0.05 1.18-0.05-0.02 0-1.17 0.14c-0.77 0.1-1.88 0.25-3.31 0.41-2.85 0.33-6.92 0.84-11.81 1.38-4.88 0.54-10.58 1.16-16.69 1.83q-4.59 0.51-9.41 1.04c-3.19 0.37-6.49 0.74-9.77 0.96q-2.47 0.15-4.92 0.28-2.45 0.1-4.87 0.21c-3.23 0.13-6.41 0.19-9.49 0.25-3.07 0.07-6.05 0.09-8.86 0.1q-4.24 0.03-7.95-0.01c-4.92-0.02-9.02-0.14-11.89-0.19-1.43-0.03-2.56-0.08-3.33-0.1q-1.16-0.04-1.17-0.05z"/>
					<path id="&lt;Path&gt;" class="s24" d="m441.62 541.44q0.01 0 1.01-0.09c0.67-0.06 1.63-0.16 2.87-0.26 2.46-0.2 5.98-0.53 10.21-0.86 4.23-0.33 9.16-0.71 14.44-1.13q3.97-0.31 8.14-0.64 4.17-0.31 8.39-0.72 4.23-0.35 8.33-0.92 4.11-0.64 8.04-1.31 3.93-0.67 7.56-1.2 3.62-0.54 6.82-0.84c4.24-0.4 7.85-0.41 10.3 0.18 1.23 0.28 2.14 0.81 2.55 1.36q0.14 0.21 0.24 0.37c0.07 0.11 0.08 0.23 0.12 0.3q0.08 0.25 0.08 0.25 0 0-0.11-0.24c-0.04-0.07-0.06-0.18-0.14-0.28q-0.11-0.15-0.26-0.34c-0.44-0.49-1.35-0.88-2.55-1.08-1.2-0.2-2.69-0.24-4.39-0.13-1.71 0.1-3.63 0.34-5.72 0.63-2.08 0.31-4.34 0.7-6.72 1.14q-3.59 0.68-7.5 1.43c-2.6 0.49-5.3 1.03-8.06 1.46q-4.19 0.62-8.43 1-4.24 0.38-8.42 0.66c-2.78 0.21-5.52 0.35-8.17 0.49-2.65 0.15-5.21 0.25-7.64 0.35q-3.65 0.15-6.84 0.23c-4.25 0.13-7.78 0.14-10.26 0.19-1.23 0.02-2.21 0-2.87 0.01q-1.01-0.01-1.02-0.01z"/>
					<path id="&lt;Path&gt;" class="s25" d="m687.3 490.49c0 0-11.92-1.34-14.23 0-2.31 1.34-2.75 7.52-2.75 7.52l12.59 0.97c0 0 2.75-7.07 4.39-8.49z"/>
					<path id="&lt;Path&gt;" class="s26" d="m387.5 422.03c-0.17 0.04 2.99-2.29 5.4-4.05 1.69-1.24 3.74-1.9 5.84-1.88l15.93 0.14c0.62 0.01 0.89 0.78 0.41 1.17l-4.19 3.35c0 0-15.6-0.55-23.39 1.27z"/>
					<path id="&lt;Path&gt;" class="s27" d="m513.28 470.67h-55.57l-11.77-6.85c0 0 3.43-4.96 3.43-10.53h20.8l1.35 0.8 8.11 0.3c6.13 0.22 12.08 2.13 17.21 5.49z"/>
					<g id="&lt;Group&gt;">
						<path id="&lt;Path&gt;" class="s28" d="m279.61 517.06c0 27.65-22.42 50.07-50.07 50.07-27.66 0-50.07-22.42-50.07-50.07 0-27.65 22.41-50.07 50.07-50.07 27.65 0 50.07 22.42 50.07 50.07z"/>
						<path id="&lt;Path&gt;" class="s29" d="m272.35 517.58c0 27.63-22.4 50.04-50.04 50.04-27.63 0-50.03-22.41-50.03-50.04 0-27.63 22.4-50.03 50.03-50.03 27.64 0 50.04 22.4 50.04 50.03z"/>
						<path id="&lt;Path&gt;" class="s30" d="m250.94 517.58c0 15.81-12.82 28.63-28.63 28.63-15.81 0-28.63-12.82-28.63-28.63 0-15.81 12.82-28.63 28.63-28.63 15.81 0 28.63 12.82 28.63 28.63z"/>
						<path id="&lt;Path&gt;" class="s31" d="m247.96 517.58c0 14.17-11.48 25.65-25.65 25.65-14.16 0-25.65-11.48-25.65-25.65 0-14.17 11.49-25.65 25.65-25.65 14.17 0 25.65 11.48 25.65 25.65z"/>
						<path id="&lt;Path&gt;" class="s32" d="m242.05 517.83q0 2.23-0.48 4.31-0.32 1.48-0.87 2.86c-0.82 2.13-2.02 4.08-3.49 5.78q-0.98 1.13-2.14 2.11-1.9 1.61-4.17 2.71-1.34 0.66-2.78 1.1-2.77 0.86-5.81 0.87-0.49 0-0.97-0.02-1.54-0.08-2.98-0.37-2.51-0.52-4.73-1.62-1.35-0.66-2.57-1.52c-1.88-1.3-3.53-2.93-4.86-4.8q-0.86-1.22-1.54-2.58-1.12-2.2-1.65-4.69-0.31-1.44-0.4-2.96-0.04-0.59-0.04-1.18 0.01-2.88 0.79-5.52 0.42-1.45 1.06-2.8 1.05-2.28 2.62-4.2 0.96-1.15 2.07-2.16c1.65-1.47 3.54-2.68 5.6-3.55q1.39-0.57 2.86-0.94 2.29-0.57 4.74-0.57h0.15q1.52 0.01 2.98 0.24c2.22 0.36 4.33 1.09 6.24 2.12q1.33 0.72 2.53 1.63 1.99 1.5 3.54 3.44 0.92 1.17 1.67 2.47c1.1 1.9 1.89 4 2.3 6.24q0.27 1.45 0.32 2.98 0.01 0.31 0.01 0.62z"/>
						<g id="&lt;Group&gt;">
							<g id="&lt;Group&gt;">
								<path id="&lt;Path&gt;" class="s33" d="m219.95 510.57l-3.55 2.26-0.83-0.67c-2.85-2.3-6.91-5.56-8.53-6.85q0.96-1.15 2.07-2.16c1.13 0.9 3.27 2.63 7.49 6.02l0.03-0.02-1.92-9.55q1.39-0.57 2.86-0.94z"/>
							</g>
							<g id="&lt;Group&gt;">
								<path id="&lt;Path&gt;" class="s34" d="m215.32 515.12l-0.44 4.19-1.05 0.23c-3.66 0.82-8.93 1.99-10.82 2.43q-0.31-1.44-0.4-2.96c1.35-0.32 4.04-0.92 9.52-2.14l0.01-0.03-8.78-4.53q0.42-1.45 1.06-2.8z"/>
							</g>
							<g id="&lt;Group&gt;">
								<path id="&lt;Path&gt;" class="s35" d="m218.99 524.54l-0.47 0.96c-1.67 3.43-4.08 8.38-4.89 10.06q-1.35-0.66-2.57-1.52c0.57-1.22 1.78-3.69 4.31-8.88l-0.02-0.02-9.15 4.11q-0.86-1.23-1.54-2.59l11.32-5.07z"/>
							</g>
							<g id="&lt;Group&gt;">
								<path id="&lt;Path&gt;" class="s36" d="m230.9 535.6q-1.34 0.66-2.78 1.1c-0.6-1.22-1.78-3.7-4.25-8.9h-0.03l-2.5 9.75q-1.54-0.08-2.98-0.37l3.1-12.09 4.18-0.51 0.46 0.98c1.62 3.41 3.97 8.33 4.8 10.04z"/>
							</g>
							<g id="&lt;Group&gt;">
								<path id="&lt;Path&gt;" class="s37" d="m231.23 522.8l-0.01 0.03 5.99 7.95q-0.98 1.13-2.14 2.11l-7.46-9.89 2.22-3.59 1.04 0.25c3.59 0.84 8.73 2.03 10.7 2.48q-0.32 1.48-0.87 2.86c-1.37-0.31-4.06-0.93-9.47-2.2z"/>
							</g>
							<g id="&lt;Group&gt;">
								<path id="&lt;Path&gt;" class="s38" d="m242.04 517.21l-12.23-0.33-1.42-3.96 0.84-0.67c2.84-2.23 6.87-5.42 8.52-6.73q0.92 1.17 1.67 2.47c-1.12 0.9-3.29 2.61-7.5 5.94l0.01 0.03 9.79 0.27q0.27 1.45 0.32 2.98z"/>
							</g>
							<g id="&lt;Group&gt;">
								<path id="&lt;Path&gt;" class="s39" d="m234.21 502.08l-7.81 9.27-3.99-1.36 0.01-1.07c0.02-3.6 0.04-8.7 0.04-10.83q1.52 0.01 2.98 0.24c0.01 1.46-0.01 4.22-0.03 9.53l0.03 0.01 6.24-7.42q1.33 0.72 2.53 1.63z"/>
							</g>
						</g>
						<path id="&lt;Path&gt;" class="s40" d="m231.28 517.58c0 4.95-4.02 8.97-8.97 8.97-4.95 0-8.96-4.02-8.96-8.97 0-4.95 4.01-8.96 8.96-8.96 4.95 0 8.97 4.01 8.97 8.96z"/>
						<path id="&lt;Path&gt;" class="s41" d="m225.47 517.38c0 1.87-1.52 3.38-3.38 3.38-1.87 0-3.38-1.51-3.38-3.38 0-1.86 1.51-3.37 3.38-3.37 1.86 0 3.38 1.51 3.38 3.37z"/>
						<path id="&lt;Path&gt;" class="s42" d="m206.06 529.04q0-0.01-0.44-0.71c-0.28-0.47-0.74-1.11-1.22-2.01-0.46-0.9-0.95-2.04-1.35-3.41-0.22-0.67-0.33-1.45-0.45-2.21-0.11-0.76-0.29-1.63-0.29-2.5-0.08-1.76 0.1-3.67 0.6-5.63 0.3-1.02 0.67-1.92 1.02-2.92 0.39-1.04 0.93-1.96 1.52-2.9 0.58-0.91 1.33-1.86 2.11-2.63l1.16-1.22c0.46-0.43 0.88-0.78 1.35-1.14q1.38-1.07 2.95-1.9c0.54-0.27 1.02-0.52 1.64-0.76l1.64-0.55c2.26-0.78 4.64-1.04 6.98-0.86 1.11 0.11 2.29 0.14 3.41 0.43q1.67 0.38 3.21 1.01c1 0.41 2.05 0.93 2.88 1.54 0.84 0.57 1.76 1.11 2.51 1.81 1.52 1.3 2.79 2.84 3.66 4.32 1.05 1.42 1.64 2.94 2.11 4.28q0.66 2.03 0.79 3.58 0.12 1.52 0.19 2.34c0.03 0.54 0.01 0.83 0.01 0.83 0 0 0.01-0.3-0.06-0.83q-0.1-0.81-0.3-2.33c-0.13-0.98-0.48-2.17-0.97-3.47-0.53-1.28-1.19-2.74-2.23-4.09-0.95-1.47-2.14-2.82-3.67-4.07-0.73-0.64-1.59-1.11-2.49-1.68-0.88-0.59-1.75-1.02-2.76-1.42q-1.47-0.6-3.07-0.95c-1.05-0.26-2.14-0.27-3.29-0.37-2.18-0.16-4.5 0.12-6.6 0.88l-1.64 0.54c-0.46 0.17-1.02 0.43-1.5 0.68q-1.5 0.77-2.84 1.78c-0.43 0.33-0.89 0.7-1.25 1.04l-1.17 1.2c-0.81 0.79-1.43 1.57-2.03 2.49-0.58 0.87-1.11 1.81-1.49 2.71-0.36 0.96-0.79 1.94-1.08 2.82-0.54 1.87-0.76 3.73-0.74 5.43-0.03 0.87 0.13 1.63 0.2 2.44 0.08 0.8 0.14 1.52 0.33 2.19 0.32 1.36 0.74 2.51 1.15 3.43 0.43 0.9 0.86 1.58 1.11 2.06q0.4 0.72 0.4 0.73z"/>
						<g id="&lt;Clip Group&gt;" clip-path="url(#cp1)">
							<path id="&lt;Compound Path&gt;" fill-rule="evenodd" class="s43" d="m177.3 517.06c0 0 0.06-1.23 0.17-3.53 0-1.15 0.2-2.56 0.47-4.21 0.13-0.83 0.22-1.72 0.42-2.66q0.36-1.39 0.75-2.96c1.16-4.12 2.97-9.11 6.32-14.11 3.28-5.01 7.9-10.15 14.04-14.29 6.14-4.11 13.77-7.17 22.21-8.2 1.05-0.17 2.12-0.15 3.19-0.23 1.08-0.02 2.15-0.19 3.25-0.1 2.17 0.13 4.36 0.11 6.57 0.53 4.45 0.53 8.82 1.93 13.09 3.71 4.27 1.83 8.25 4.43 11.98 7.41 3.66 3.07 6.88 6.72 9.66 10.73 2.71 4.07 4.78 8.56 6.31 13.26 1.43 4.75 2.09 9.66 2.21 14.68-0.12 4.87-0.78 9.9-2.22 14.62-1.52 4.69-3.59 9.19-6.3 13.26-2.78 4-6 7.66-9.66 10.73-3.73 2.97-7.71 5.58-11.98 7.4-8.49 3.73-17.7 4.89-26.09 3.92-8.46-1.04-16.07-4.1-22.22-8.2-6.14-4.15-10.76-9.28-14.04-14.29-3.35-5-5.16-9.99-6.32-14.11q-0.39-1.57-0.75-2.96c-0.2-0.94-0.29-1.83-0.42-2.66-0.27-1.65-0.47-3.06-0.47-4.21-0.11-2.3-0.17-3.53-0.17-3.53zm0 0c0 0 0.07 1.23 0.19 3.53 0.01 1.15 0.22 2.56 0.49 4.2 0.15 0.83 0.24 1.72 0.45 2.65q0.36 1.39 0.77 2.95c1.18 4.11 3.02 9.08 6.38 14.04 3.3 4.97 7.94 10.05 14.06 14.13 6.13 4.04 13.74 7.03 22.08 8 8.36 0.91 17.44-0.3 25.81-4.03 4.2-1.83 8.11-4.43 11.77-7.38 3.59-3.06 6.74-6.67 9.45-10.63 2.63-4.02 4.64-8.45 6.11-13.07 1.38-4.68 1.98-9.47 2.09-14.42-0.11-4.81-0.72-9.7-2.09-14.35-1.47-4.63-3.48-9.06-6.12-13.08-2.71-3.96-5.85-7.57-9.45-10.63-3.65-2.95-7.56-5.54-11.76-7.38-4.2-1.78-8.54-3.2-12.91-3.74-2.15-0.44-4.36-0.43-6.52-0.57-1.06-0.1-2.14 0.06-3.2 0.08-1.07 0.07-2.13 0.04-3.17 0.2-8.36 0.97-15.95 3.96-22.08 8-6.13 4.08-10.77 9.16-14.07 14.13-3.36 4.96-5.2 9.93-6.38 14.04q-0.41 1.56-0.77 2.95c-0.21 0.93-0.3 1.82-0.45 2.64-0.27 1.65-0.48 3.06-0.49 4.21-0.12 2.3-0.19 3.53-0.19 3.53z"/>
							<path id="&lt;Compound Path&gt;" fill-rule="evenodd" class="s44" d="m174.84 517.06c0 0 0.06-1.23 0.17-3.53 0-1.15 0.2-2.56 0.47-4.21 0.13-0.83 0.22-1.72 0.42-2.66q0.36-1.39 0.75-2.96c1.16-4.12 2.97-9.11 6.32-14.11 3.28-5.01 7.9-10.15 14.04-14.29 6.14-4.11 13.78-7.17 22.21-8.2 1.05-0.17 2.12-0.15 3.19-0.23 1.08-0.02 2.15-0.19 3.25-0.1 2.17 0.13 4.36 0.11 6.57 0.53 4.45 0.53 8.83 1.93 13.09 3.71 4.28 1.83 8.25 4.43 11.98 7.41 3.66 3.07 6.88 6.72 9.66 10.73 2.71 4.07 4.78 8.56 6.31 13.26 1.43 4.75 2.09 9.66 2.21 14.68-0.12 4.87-0.78 9.9-2.22 14.62-1.52 4.69-3.59 9.19-6.3 13.26-2.78 4-6 7.66-9.66 10.73-3.73 2.97-7.71 5.58-11.98 7.4-8.49 3.73-17.7 4.89-26.09 3.92-8.46-1.04-16.07-4.1-22.22-8.2-6.14-4.15-10.76-9.28-14.04-14.29-3.35-5-5.16-9.99-6.31-14.11q-0.4-1.57-0.76-2.96c-0.2-0.94-0.29-1.83-0.42-2.66-0.27-1.65-0.47-3.06-0.47-4.21-0.11-2.3-0.17-3.53-0.17-3.53zm0 0c0 0 0.07 1.23 0.19 3.53 0.01 1.15 0.22 2.56 0.49 4.2 0.15 0.83 0.24 1.72 0.45 2.65q0.36 1.39 0.77 2.95c1.18 4.11 3.02 9.08 6.38 14.04 3.3 4.97 7.94 10.05 14.07 14.13 6.12 4.04 13.73 7.03 22.07 8 8.36 0.91 17.44-0.3 25.81-4.03 4.2-1.83 8.11-4.43 11.77-7.38 3.59-3.06 6.74-6.67 9.45-10.63 2.63-4.02 4.64-8.45 6.11-13.07 1.38-4.68 1.99-9.47 2.09-14.42-0.11-4.81-0.72-9.7-2.09-14.35-1.47-4.63-3.48-9.06-6.12-13.08-2.71-3.96-5.85-7.57-9.44-10.63-3.66-2.95-7.57-5.54-11.77-7.38-4.2-1.78-8.54-3.2-12.9-3.74-2.16-0.44-4.37-0.43-6.53-0.57-1.06-0.1-2.14 0.06-3.2 0.08-1.06 0.07-2.13 0.04-3.17 0.2-8.36 0.97-15.95 3.96-22.08 8-6.13 4.08-10.77 9.16-14.07 14.13-3.36 4.96-5.2 9.93-6.38 14.04q-0.41 1.56-0.77 2.95c-0.21 0.93-0.3 1.82-0.44 2.64-0.28 1.65-0.49 3.06-0.5 4.21-0.12 2.3-0.19 3.53-0.19 3.53z"/>
							<path id="&lt;Compound Path&gt;" fill-rule="evenodd" class="s45" d="m172.09 517.06c0 0 0.06-1.23 0.16-3.53 0.01-1.15 0.2-2.56 0.47-4.21 0.14-0.83 0.23-1.72 0.43-2.66q0.35-1.39 0.75-2.96c1.16-4.12 2.97-9.11 6.31-14.11 3.28-5.01 7.91-10.15 14.05-14.29 6.14-4.11 13.77-7.17 22.2-8.2 1.05-0.17 2.13-0.15 3.2-0.23 1.08-0.02 2.14-0.19 3.25-0.1 2.16 0.13 4.36 0.11 6.56 0.53 4.46 0.53 8.83 1.93 13.1 3.71 4.27 1.83 8.25 4.43 11.98 7.41 3.66 3.07 6.88 6.72 9.66 10.73 2.7 4.07 4.78 8.56 6.3 13.26 1.43 4.75 2.1 9.66 2.22 14.68-0.13 4.87-0.79 9.9-2.22 14.62-1.52 4.69-3.6 9.19-6.3 13.26-2.78 4-6 7.66-9.67 10.73-3.72 2.97-7.7 5.58-11.97 7.4-8.49 3.73-17.7 4.89-26.09 3.92-8.46-1.04-16.08-4.1-22.22-8.2-6.14-4.15-10.77-9.28-14.05-14.29-3.34-5-5.15-9.99-6.31-14.11q-0.4-1.57-0.75-2.96c-0.2-0.94-0.29-1.83-0.43-2.66-0.27-1.65-0.46-3.06-0.47-4.21-0.1-2.3-0.16-3.53-0.16-3.53zm0 0c0 0 0.06 1.23 0.19 3.53 0.01 1.15 0.21 2.56 0.49 4.2 0.14 0.83 0.24 1.72 0.44 2.65q0.37 1.39 0.77 2.95c1.19 4.11 3.02 9.08 6.39 14.04 3.3 4.97 7.93 10.05 14.06 14.13 6.13 4.04 13.74 7.03 22.08 8 8.36 0.91 17.43-0.3 25.8-4.03 4.21-1.83 8.12-4.43 11.77-7.38 3.59-3.06 6.74-6.67 9.45-10.63 2.64-4.02 4.65-8.45 6.11-13.07 1.38-4.68 1.99-9.47 2.09-14.42-0.1-4.81-0.71-9.7-2.09-14.35-1.47-4.63-3.47-9.06-6.11-13.08-2.71-3.96-5.86-7.57-9.45-10.63-3.66-2.95-7.56-5.54-11.77-7.38-4.19-1.78-8.53-3.2-12.9-3.74-2.15-0.44-4.37-0.43-6.53-0.57-1.06-0.1-2.14 0.06-3.2 0.08-1.06 0.07-2.12 0.04-3.16 0.2-8.36 0.97-15.96 3.96-22.09 8-6.13 4.08-10.76 9.16-14.06 14.13-3.37 4.96-5.2 9.93-6.39 14.04q-0.4 1.56-0.76 2.95c-0.21 0.93-0.31 1.82-0.45 2.64-0.28 1.65-0.48 3.06-0.49 4.21-0.13 2.3-0.19 3.53-0.19 3.53z"/>
						</g>
					</g>
					<g id="&lt;Group&gt;">
						<path id="&lt;Path&gt;" class="s46" d="m680 517.54c0-27.65 22.42-50.07 50.07-50.07 27.65 0 50.07 22.42 50.07 50.07 0 27.66-22.42 50.08-50.07 50.08-27.65 0-50.07-22.42-50.07-50.08z"/>
						<path id="&lt;Path&gt;" class="s47" d="m681.25 517.54c0-27.65 22.42-50.07 50.07-50.07 27.65 0 50.07 22.42 50.07 50.07 0 27.66-22.42 50.08-50.07 50.08-27.65 0-50.07-22.42-50.07-50.08z"/>
						<path id="&lt;Path&gt;" class="s48" d="m687.89 517.02c0-27.63 22.4-50.03 50.03-50.03 27.63 0 50.04 22.4 50.04 50.03 0 27.64-22.41 50.04-50.04 50.04-27.63 0-50.03-22.4-50.03-50.04z"/>
						<path id="&lt;Path&gt;" class="s49" d="m709.29 517.02c0-15.81 12.82-28.63 28.63-28.63 15.81 0 28.63 12.82 28.63 28.63 0 15.81-12.82 28.63-28.63 28.63-15.81 0-28.63-12.82-28.63-28.63z"/>
						<path id="&lt;Path&gt;" class="s50" d="m712.27 517.02c0-14.16 11.48-25.65 25.65-25.65 14.17 0 25.65 11.49 25.65 25.65 0 14.17-11.48 25.65-25.65 25.65-14.17 0-25.65-11.48-25.65-25.65z"/>
						<path id="&lt;Path&gt;" class="s32" d="m718.18 516.78q0-2.23 0.48-4.32 0.32-1.47 0.87-2.86c0.83-2.13 2.02-4.08 3.49-5.77q0.99-1.14 2.14-2.12 1.9-1.61 4.17-2.71 1.34-0.66 2.79-1.1 2.76-0.86 5.8-0.87 0.49 0 0.98 0.03 1.53 0.07 2.98 0.37 2.5 0.51 4.72 1.62 1.36 0.65 2.57 1.51c1.89 1.31 3.53 2.93 4.86 4.8q0.86 1.22 1.54 2.58 1.12 2.21 1.65 4.69 0.31 1.45 0.4 2.97 0.04 0.59 0.04 1.18-0.01 2.88-0.79 5.51-0.41 1.46-1.05 2.81-1.06 2.27-2.63 4.19-0.96 1.16-2.07 2.16c-1.64 1.48-3.53 2.68-5.6 3.55q-1.38 0.57-2.86 0.94-2.29 0.57-4.74 0.58h-0.15q-1.52-0.02-2.97-0.25c-2.23-0.36-4.33-1.08-6.25-2.12q-1.33-0.72-2.53-1.63-1.98-1.5-3.53-3.44-0.93-1.16-1.68-2.46c-1.1-1.9-1.89-4.01-2.3-6.24q-0.27-1.46-0.31-2.99-0.02-0.3-0.02-0.61z"/>
						<g id="&lt;Group&gt;">
							<g id="&lt;Group&gt;">
								<path id="&lt;Path&gt;" class="s51" d="m740.28 524.04l3.55-2.27 0.84 0.67c2.85 2.3 6.9 5.57 8.52 6.85q-0.96 1.16-2.07 2.16c-1.13-0.89-3.27-2.62-7.49-6.01l-0.02 0.01 1.91 9.55q-1.38 0.57-2.86 0.94z"/>
							</g>
							<g id="&lt;Group&gt;">
								<path id="&lt;Path&gt;" class="s52" d="m744.92 519.48l0.44-4.19 1.04-0.23c3.66-0.82 8.93-1.99 10.82-2.43q0.31 1.45 0.4 2.97c-1.35 0.31-4.04 0.91-9.52 2.14l-0.01 0.03 8.78 4.52q-0.41 1.46-1.05 2.81z"/>
							</g>
							<g id="&lt;Group&gt;">
								<path id="&lt;Path&gt;" class="s53" d="m741.25 510.06l0.47-0.96c1.67-3.43 4.07-8.37 4.88-10.05q1.36 0.65 2.57 1.51c-0.57 1.22-1.77 3.7-4.31 8.89l0.03 0.01 9.14-4.1q0.86 1.22 1.54 2.58l-11.32 5.08z"/>
							</g>
							<g id="&lt;Group&gt;">
								<path id="&lt;Path&gt;" class="s54" d="m729.33 499q1.34-0.66 2.79-1.1c0.59 1.23 1.77 3.7 4.25 8.9h0.03l2.5-9.74q1.53 0.07 2.98 0.37l-3.11 12.08-4.17 0.51-0.47-0.97c-1.62-3.42-3.97-8.34-4.8-10.05z"/>
							</g>
							<g id="&lt;Group&gt;">
								<path id="&lt;Path&gt;" class="s55" d="m729 511.8l0.02-0.03-6-7.94q0.99-1.14 2.14-2.12l7.46 9.89-2.21 3.59-1.05-0.24c-3.59-0.84-8.73-2.04-10.7-2.49q0.32-1.47 0.87-2.86c1.37 0.31 4.06 0.94 9.47 2.2z"/>
							</g>
							<g id="&lt;Group&gt;">
								<path id="&lt;Path&gt;" class="s56" d="m718.2 517.39l12.22 0.33 1.42 3.97-0.84 0.66c-2.83 2.23-6.86 5.42-8.51 6.73q-0.93-1.16-1.68-2.46c1.13-0.91 3.29-2.62 7.5-5.95l-0.01-0.03-9.79-0.26q-0.27-1.46-0.31-2.99z"/>
							</g>
							<g id="&lt;Group&gt;">
								<path id="&lt;Path&gt;" class="s57" d="m726.02 532.52l7.81-9.26 3.99 1.35-0.01 1.08c-0.01 3.59-0.04 8.69-0.04 10.83q-1.52-0.02-2.97-0.25c-0.01-1.46 0-4.21 0.03-9.53l-0.03-0.01-6.25 7.42q-1.33-0.72-2.53-1.63z"/>
							</g>
						</g>
						<path id="&lt;Path&gt;" class="s58" d="m728.96 517.02c0-4.95 4.01-8.96 8.96-8.96 4.95 0 8.96 4.01 8.96 8.96 0 4.95-4.01 8.97-8.96 8.97-4.95 0-8.96-4.02-8.96-8.97z"/>
						<path id="&lt;Path&gt;" class="s59" d="m734.77 517.22c0-1.86 1.51-3.38 3.37-3.38 1.87 0 3.38 1.52 3.38 3.38 0 1.87-1.51 3.38-3.38 3.38-1.86 0-3.37-1.51-3.37-3.38z"/>
						<path id="&lt;Path&gt;" class="s42" d="m754.17 505.57q0.01 0 0.44 0.7c0.28 0.47 0.74 1.11 1.22 2.01 0.47 0.91 0.96 2.04 1.35 3.41 0.23 0.68 0.34 1.45 0.46 2.22 0.11 0.75 0.29 1.63 0.29 2.49 0.07 1.76-0.11 3.68-0.61 5.64-0.3 1.01-0.67 1.91-1.01 2.91-0.39 1.04-0.93 1.96-1.53 2.9-0.57 0.91-1.32 1.86-2.11 2.63l-1.16 1.22c-0.45 0.44-0.88 0.78-1.34 1.14q-1.39 1.07-2.96 1.9c-0.54 0.28-1.02 0.52-1.64 0.76l-1.64 0.55c-2.25 0.79-4.63 1.05-6.98 0.87-1.1-0.12-2.29-0.14-3.41-0.43q-1.67-0.38-3.21-1.02c-0.99-0.41-2.04-0.93-2.87-1.54-0.84-0.57-1.77-1.11-2.52-1.81-1.52-1.3-2.78-2.84-3.66-4.31-1.05-1.43-1.64-2.94-2.1-4.28q-0.67-2.04-0.8-3.58-0.12-1.52-0.18-2.34c-0.04-0.54-0.02-0.83-0.02-0.83 0 0 0 0.29 0.06 0.82q0.11 0.82 0.31 2.33c0.13 0.99 0.47 2.18 0.97 3.47 0.52 1.29 1.18 2.74 2.23 4.09 0.94 1.48 2.13 2.83 3.66 4.08 0.73 0.64 1.59 1.1 2.49 1.67 0.88 0.59 1.75 1.02 2.76 1.43q1.48 0.59 3.08 0.94c1.05 0.26 2.13 0.27 3.29 0.38 2.17 0.15 4.5-0.13 6.59-0.89l1.65-0.53c0.45-0.18 1.01-0.44 1.5-0.69q1.5-0.77 2.83-1.78c0.43-0.32 0.89-0.7 1.25-1.03l1.17-1.21c0.82-0.79 1.44-1.57 2.04-2.48 0.57-0.88 1.1-1.81 1.48-2.71 0.37-0.96 0.8-1.94 1.08-2.82 0.54-1.87 0.77-3.73 0.75-5.43 0.03-0.88-0.13-1.64-0.21-2.45-0.08-0.8-0.14-1.51-0.32-2.19-0.32-1.36-0.75-2.51-1.16-3.43-0.42-0.9-0.86-1.58-1.1-2.06q-0.4-0.72-0.41-0.72z"/>
						<g id="&lt;Clip Group&gt;" clip-path="url(#cp2)">
							<path id="&lt;Compound Path&gt;" fill-rule="evenodd" class="s60" d="m782.93 517.54c0 0-0.06 1.23-0.17 3.53 0 1.16-0.19 2.56-0.46 4.22-0.14 0.82-0.23 1.72-0.43 2.65q-0.35 1.4-0.75 2.96c-1.16 4.12-2.97 9.11-6.31 14.12-3.28 5-7.91 10.14-14.05 14.28-6.14 4.11-13.77 7.17-22.2 8.21-1.05 0.16-2.13 0.14-3.2 0.22-1.08 0.03-2.14 0.19-3.25 0.1-2.16-0.13-4.36-0.1-6.57-0.53-4.45-0.52-8.82-1.93-13.09-3.71-4.27-1.83-8.25-4.43-11.98-7.41-3.66-3.07-6.88-6.72-9.66-10.73-2.7-4.06-4.78-8.56-6.3-13.26-1.43-4.74-2.1-9.68-2.22-14.65 0.13-4.92 0.79-9.91 2.22-14.64 1.52-4.7 3.6-9.2 6.3-13.26 2.78-4.01 6-7.66 9.67-10.73 3.72-2.98 7.7-5.58 11.97-7.41 8.49-3.73 17.7-4.88 26.09-3.92 8.46 1.04 16.08 4.1 22.22 8.2 6.14 4.15 10.76 9.28 14.05 14.29 3.34 5.01 5.15 10 6.31 14.12q0.4 1.56 0.75 2.96c0.2 0.93 0.29 1.83 0.43 2.65 0.26 1.65 0.46 3.06 0.46 4.22 0.11 2.3 0.17 3.52 0.17 3.52zm0 0c0 0-0.06-1.22-0.19-3.52-0.01-1.16-0.21-2.56-0.49-4.21-0.14-0.82-0.24-1.72-0.45-2.65q-0.36-1.39-0.76-2.95c-1.19-4.11-3.02-9.07-6.39-14.04-3.3-4.97-7.93-10.05-14.06-14.13-6.13-4.04-13.74-7.03-22.08-8-8.36-0.9-17.43 0.31-25.8 4.04-4.21 1.83-8.12 4.42-11.77 7.38-3.6 3.05-6.74 6.67-9.45 10.62-2.64 4.02-4.65 8.46-6.12 13.08-1.37 4.67-1.98 9.49-2.08 14.38 0.1 4.87 0.71 9.73 2.09 14.39 1.47 4.62 3.47 9.05 6.11 13.07 2.71 3.96 5.86 7.58 9.45 10.63 3.66 2.95 7.56 5.55 11.77 7.38 4.19 1.79 8.53 3.21 12.9 3.75 2.15 0.43 4.37 0.42 6.53 0.57 1.05 0.09 2.14-0.06 3.2-0.08 1.06-0.08 2.12-0.05 3.16-0.21 8.36-0.97 15.96-3.96 22.09-8 6.13-4.08 10.76-9.16 14.06-14.12 3.36-4.97 5.2-9.93 6.39-14.04q0.4-1.56 0.76-2.95c0.21-0.93 0.31-1.83 0.45-2.65 0.28-1.65 0.48-3.05 0.49-4.21 0.13-2.3 0.19-3.53 0.19-3.53z"/>
							<path id="&lt;Compound Path&gt;" fill-rule="evenodd" class="s61" d="m785.39 517.54c0 0-0.06 1.23-0.17 3.53 0 1.16-0.2 2.56-0.46 4.22-0.14 0.82-0.23 1.72-0.43 2.65q-0.35 1.4-0.75 2.96c-1.16 4.12-2.97 9.11-6.31 14.12-3.29 5-7.91 10.14-14.05 14.28-6.14 4.11-13.77 7.17-22.21 8.21-1.04 0.16-2.12 0.14-3.19 0.22-1.08 0.03-2.14 0.19-3.25 0.1-2.16-0.13-4.36-0.1-6.57-0.53-4.45-0.52-8.82-1.93-13.09-3.71-4.27-1.83-8.25-4.43-11.98-7.41-3.66-3.07-6.88-6.72-9.66-10.73-2.71-4.06-4.78-8.56-6.3-13.26-1.43-4.74-2.1-9.68-2.22-14.65 0.13-4.92 0.79-9.91 2.22-14.64 1.52-4.7 3.6-9.2 6.3-13.26 2.78-4.01 6-7.66 9.66-10.73 3.73-2.98 7.71-5.58 11.98-7.41 8.49-3.73 17.7-4.88 26.09-3.92 8.46 1.04 16.08 4.1 22.22 8.2 6.14 4.15 10.76 9.28 14.05 14.29 3.34 5.01 5.15 10 6.31 14.12q0.4 1.56 0.75 2.96c0.2 0.93 0.29 1.83 0.43 2.65 0.26 1.65 0.46 3.06 0.46 4.22 0.11 2.3 0.17 3.52 0.17 3.52zm0 0c0 0-0.06-1.22-0.19-3.52-0.01-1.16-0.21-2.56-0.49-4.21-0.14-0.82-0.24-1.72-0.45-2.65q-0.36-1.39-0.76-2.95c-1.19-4.11-3.03-9.07-6.39-14.04-3.3-4.97-7.93-10.05-14.06-14.13-6.13-4.04-13.74-7.03-22.08-8-8.36-0.9-17.43 0.31-25.8 4.04-4.21 1.83-8.12 4.42-11.77 7.38-3.6 3.05-6.74 6.67-9.45 10.62-2.64 4.02-4.65 8.46-6.12 13.08-1.37 4.67-1.98 9.49-2.09 14.38 0.11 4.87 0.72 9.73 2.1 14.39 1.47 4.62 3.47 9.05 6.11 13.07 2.71 3.96 5.86 7.58 9.45 10.63 3.65 2.95 7.56 5.55 11.77 7.38 4.19 1.79 8.53 3.21 12.9 3.75 2.15 0.43 4.37 0.42 6.53 0.57 1.05 0.09 2.14-0.06 3.2-0.08 1.06-0.08 2.12-0.05 3.16-0.21 8.36-0.97 15.96-3.96 22.09-8 6.13-4.08 10.76-9.16 14.06-14.12 3.36-4.97 5.2-9.93 6.39-14.04q0.4-1.56 0.76-2.95c0.21-0.93 0.31-1.83 0.45-2.65 0.28-1.65 0.48-3.05 0.49-4.21 0.13-2.3 0.19-3.53 0.19-3.53z"/>
							<path id="&lt;Compound Path&gt;" fill-rule="evenodd" class="s62" d="m788.15 517.54c0 0-0.06 1.23-0.17 3.53 0 1.16-0.2 2.56-0.47 4.22-0.14 0.82-0.22 1.72-0.43 2.65q-0.35 1.4-0.75 2.96c-1.16 4.12-2.97 9.11-6.31 14.12-3.28 5-7.9 10.14-14.04 14.28-6.15 4.11-13.78 7.17-22.21 8.21-1.05 0.16-2.12 0.14-3.19 0.22-1.08 0.03-2.15 0.19-3.26 0.1-2.16-0.13-4.35-0.1-6.56-0.53-4.45-0.52-8.83-1.93-13.1-3.71-4.27-1.83-8.25-4.43-11.97-7.41-3.67-3.07-6.89-6.72-9.67-10.73-2.7-4.06-4.77-8.56-6.3-13.26-1.43-4.74-2.09-9.68-2.22-14.65 0.13-4.92 0.79-9.91 2.22-14.64 1.53-4.7 3.6-9.2 6.31-13.26 2.77-4.01 5.99-7.66 9.66-10.73 3.73-2.98 7.7-5.58 11.97-7.41 8.5-3.73 17.71-4.88 26.1-3.92 8.45 1.04 16.07 4.1 22.22 8.2 6.14 4.15 10.76 9.28 14.04 14.29 3.34 5.01 5.15 10 6.31 14.12q0.4 1.56 0.75 2.96c0.21 0.93 0.29 1.83 0.43 2.65 0.27 1.65 0.47 3.06 0.47 4.22 0.11 2.3 0.17 3.52 0.17 3.52zm0 0c0 0-0.07-1.22-0.19-3.52-0.01-1.16-0.22-2.56-0.5-4.21-0.14-0.82-0.23-1.72-0.44-2.65q-0.36-1.39-0.77-2.95c-1.18-4.11-3.02-9.07-6.38-14.04-3.3-4.97-7.94-10.05-14.07-14.13-6.12-4.04-13.73-7.03-22.07-8-8.37-0.9-17.44 0.31-25.81 4.04-4.21 1.83-8.11 4.42-11.77 7.38-3.59 3.05-6.74 6.67-9.45 10.62-2.63 4.02-4.64 8.46-6.11 13.08-1.38 4.67-1.99 9.49-2.09 14.38 0.11 4.87 0.71 9.73 2.09 14.39 1.47 4.62 3.48 9.05 6.11 13.07 2.71 3.96 5.86 7.58 9.45 10.63 3.66 2.95 7.57 5.55 11.77 7.38 4.2 1.79 8.53 3.21 12.9 3.75 2.16 0.43 4.37 0.42 6.53 0.57 1.06 0.09 2.14-0.06 3.2-0.08 1.06-0.08 2.13-0.05 3.17-0.21 8.36-0.97 15.95-3.96 22.08-8 6.13-4.08 10.76-9.16 14.07-14.12 3.36-4.97 5.2-9.93 6.38-14.04q0.41-1.56 0.77-2.95c0.21-0.93 0.3-1.83 0.44-2.65 0.28-1.65 0.49-3.05 0.5-4.21 0.12-2.3 0.19-3.53 0.19-3.53z"/>
						</g>
					</g>
					<path id="&lt;Path&gt;" class="s63" d="m452.26 437.33l-7.22 0.62c-27.78 0.36-98.41 4.19-154.65 31.87-13.94-6.43-39.65-5.16-59.14-1.83 16.17-3.5 59-12.01 83.54-24.83 30.78-16.09 41.31-30.59 60.58-33.97 19.27-3.37 75.69 2.78 75.69 2.78z"/>
					<path id="&lt;Path&gt;" class="s64" d="m453.5 424.57c0.38 7.01-0.14 12.74-1.17 12.79-1.03 0.06-2.18-5.58-2.57-12.59-0.38-7.01 0.14-12.74 1.17-12.8 1.03-0.05 2.18 5.58 2.57 12.6z"/>
					<path id="&lt;Path&gt;" class="s65" d="m521.82 479.96c0 0 6.42 18.26-11.92 25.03h-9.54c1.38 0.08 16.41-16.28 14.41-24.58z"/>
					<path id="&lt;Path&gt;" class="s24" d="m292.68 513.88v32.48l83.28 3.73-77.92-8.5z"/>
					<path id="&lt;Path&gt;" class="s66" d="m304.1 504.05l9.63 6.95 34.07 0.4z"/>
					<path id="&lt;Path&gt;" class="s24" d="m462.62 555.2l197.66 1.19-112.44-3.18z"/>
					<path id="&lt;Path&gt;" class="s24" d="m311.15 479.02l4.67 8.14 46.88 11.82-44.4-14.3z"/>
					<path id="&lt;Path&gt;" class="s7" d="m314.13 461.44c0 0 28.9-23.99 123.51-24.14 0 0-74.19 0.6-123.51 24.14z"/>
					<path id="&lt;Path&gt;" class="s67" d="m353.36 537.12c1.2 0 49.47 2.78 91.78-3.17 42.31-5.96 132.7-17.29 132.7-17.29 0 0 12.12-8.54 9.93-14.1-2.18-5.56-234.41 34.56-234.41 34.56z"/>
					<path id="&lt;Path&gt;" class="s68" d="m520.63 480.11c0.5 0.04 5.66 0.7 4.96 11.03-0.69 10.33-11.92 14.3-20.06 15.29-8.14 1-30.19-6.16-30.19-6.16 0 0 27.61-21.65 45.29-20.16z"/>
					<path id="&lt;Path&gt;" class="s69" d="m642.54 474.06c0.59 0.06 6.7 0.78 5.6 4-1.1 3.22-14.53 3.38-24.23 2.89-9.71-0.48-35.71-4.93-35.71-4.93 0 0 33.37-4.18 54.34-1.96z"/>
					<path id="&lt;Path&gt;" class="s70" d="m571.73 506.15c0.6 0.02 6.74 0.4 5.85 4.94-0.89 4.55-14.29 6.12-24.01 6.42-9.71 0.31-35.95-3.2-35.95-3.2 0 0 33.04-9.11 54.11-8.16z"/>
					<path id="&lt;Path&gt;" class="s71" d="m408.23 505.8c0.6 0.04 6.73 0.51 5.77 5.04-0.97 4.53-14.39 5.88-24.11 6.03-9.72 0.14-35.9-3.81-35.9-3.81 0 0 33.19-8.55 54.24-7.26z"/>
					<path id="&lt;Path&gt;" class="s72" d="m157.93 492.3c-0.06 0.6-0.73 6.72-5.22 5.61-4.5-1.1-5.43-14.57-5.27-24.28 0.16-9.72 4.92-35.76 4.92-35.76 0 0 7.52 33.44 5.57 54.43z"/>
					<path id="&lt;Path&gt;" class="s73" d="m523.18 511.5c-1.22 0.28-54.39 12.2-95.9 26.97l-34.53 3.32-7.73-0.55c30.68-8.21 91.17-23.49 138.16-29.74z"/>
					<path id="&lt;Path&gt;" class="s73" d="m166.04 468.79c0 0-14.1 15.76-19.2 31.03l-0.76-0.02c-2.4-0.04-4.29-2.05-4.19-4.43l0.4-9.28c6.07-6.24 14.13-13 23.75-17.3z"/>
					<path id="&lt;Path&gt;" class="s73" d="m176.17 478.32c0 0-8.92 9.98-15.14 21.75l-12.49-0.22c6.29-7.21 15.79-16.22 27.63-21.53z"/>
					<path id="&lt;Path&gt;" class="s74" d="m380.28 498.49c0.89 0 93.42-18.03 110.4-16.99 16.99 1.04 3.73 40.08-25.18 43.65-28.9 3.58-61.23-20.11-71.81-21.3-10.58-1.19-13.41-5.36-13.41-5.36z"/>
					<path id="&lt;Path&gt;" class="s75" d="m372.98 467.99c0 0 67.79-1.78 72.26-0.59 4.47 1.19 27.12 9.68 23.84 12.21-3.28 2.54-77.48 12.52-80.75 11.92-3.28-0.59-15.35-23.54-15.35-23.54z"/>
					<path id="&lt;Path&gt;" class="s76" d="m188.34 486.91c0 0 8.44-18.07 33.57-17.68 25.13 0.4 37.14 16.1 40.32 24.04 3.18 7.95-32.18-16.09-49.56-8.84-17.38 7.25-24.33 2.48-24.33 2.48z"/>
					<path id="&lt;Path&gt;" class="s77" d="m705.02 488.7c0 0 8.45-18.07 33.58-17.68 25.13 0.4 37.14 16.09 40.32 24.04 3.18 7.95-32.18-16.09-49.56-8.84-17.38 7.25-24.34 2.48-24.34 2.48z"/>
					<path id="&lt;Path&gt;" class="s78" d="m295.95 456.47c0 0 28.41-8.14 47.68-24.63 19.27-16.49 34.57-20.46 67.94-19.07 33.37 1.39 33.77 1.19 33.57 4.37-0.2 3.18 4.57 14.1 1.79 16.29-2.78 2.18-48.08-15.3-83.83 2.18-35.76 17.48-67.15 20.86-67.15 20.86z"/>
					<path id="&lt;Path&gt;" class="s79" d="m538.88 452.68c0 0 11.43-0.91 13.81 3.09 2.38 4.01-1.83 6.5-4.76 4.92-2.92-1.58-2.38-6.98-9.05-8.01z"/>
					<path id="&lt;Path&gt;" class="s80" d="m529.96 497.34c0.69 0.6 10.1 11.03 36.64 4.03 26.53-7.01 29.44-11.77 27.04-18.78-2.39-7-55.12-3.42-58.2-0.14-3.08 3.27-5.48 14.89-5.48 14.89z"/>
					<path id="&lt;Path&gt;" class="s81" d="m782.99 486.62c0 0 67.2 21.9 69.58 24.13h-31.73l20.56-1.79z"/>
					<path id="&lt;Path&gt;" class="s82" d="m793.57 517.46c0 0 68.09-3.88 71.07-0.45 2.98 3.43 2.83 21.9 2.83 21.9 0 0-1.49-17.28-11.17-20.11-9.69-2.83-62.73-1.34-62.73-1.34z"/>
					<path id="&lt;Path&gt;" class="s83" d="m597.31 509.11c0 0 53.83-6.55 55.77-3.87 1.93 2.68-1.34 27.86-1.34 27.86 0 0 3.57-25.18-15.5-25.18-19.07 0-38.93 1.19-38.93 1.19z"/>
					<path id="&lt;Path&gt;" class="s84" d="m443.08 448.1c0.52-0.37 15.64-6.25 17.65-4.09 2.02 2.16 2.69 13.33 2.69 13.33 0 0-2.24-11.77-7.97-10.88-5.74 0.9-12.37 1.64-12.37 1.64z"/>
					<path id="&lt;Path&gt;" class="s85" d="m507.42 469.38c0 0-11.23-11.12-26.42-12.91-15.2-1.79-52.25 2.98-52.25 2.98 0 0 47.28-2.88 58.9 1.99 11.62 4.86 19.77 7.94 19.77 7.94z"/>
					<path id="&lt;Path&gt;" class="s86" d="m292.01 474.03c0 0 7.82-1.72 11.17 3.57 3.35 5.29 4.54 13.19 10.88 16.32 0 0-7.01-0.75-10.95-8.57-3.95-7.82-3.13-9.68-11.1-11.32z"/>
					<path id="&lt;Path&gt;" class="s87" d="m185.41 429.55c0 0 43.5-2.53 44.99 1.49 1.49 4.03-1.49 24.59-1.49 24.59 0 0 2.09-18.92-6.11-23.1-8.19-4.17-37.39-2.98-37.39-2.98z"/>
					<path id="&lt;Path&gt;" class="s88" d="m577.69 469.93c0 0 9.24-4.88 11.62-3.76 2.38 1.12 4.02 3.05 4.02 3.05 0 0-4.21-2.23-6.48-1.79-2.27 0.45-9.16 2.5-9.16 2.5z"/>
					<path id="&lt;Path&gt;" class="s89" d="m637.73 539.41c0 0 0.05 8.69 1.79 9.98 1.74 1.29 26.72 0.5 26.72 0.5 0 0-22.6-0.8-24.68-4.27-2.09-3.48-3.83-6.21-3.83-6.21z"/>
				</g>
			</g>
		</g>
	</g>
</svg>