<?xml version="1.0" encoding="utf-8" ?><svg xmlns="http://www.w3.org/2000/svg" xmlns:xlink="http://www.w3.org/1999/xlink" width="1024" height="1024" viewBox="0 0 1024 1024"><path fill="#D9B36A" d="M447.719 308.644C446.922 276.431 470.181 246.015 501.835 239.239C518.241 235.728 537.147 238.641 551.345 247.717C565.15 256.647 575.446 270.071 580.494 285.718C582.139 290.94 583.028 296.806 584.207 302.208L585.44 302.609C585.111 302.975 584.102 303.617 584.117 303.766C584.517 307.875 582.301 309.135 586.058 309.5C585.274 309.859 584.535 309.883 584.424 310.74C581.119 336.284 570.175 358.065 545.729 369.355C499.174 390.856 452.644 359.823 447.608 310.72C447.651 310.028 447.688 309.336 447.719 308.644ZM519.199 366.945C552.318 365.16 577.727 336.876 575.966 303.755C574.204 270.635 545.939 245.205 512.817 246.942C479.661 248.681 454.199 276.981 455.962 310.137C457.726 343.292 486.045 368.732 519.199 366.945Z"/><path fill="#D9B36A" d="M487.848 279.94C485.142 278.217 480.655 277.547 482.738 273.088C483.313 271.716 484.717 270.822 486.2 270.631C495.609 269.42 505.442 270.665 514.871 270.251C529.373 269.615 542.02 271.922 544.749 288.968C546.692 301.108 540.386 309.14 530.067 314.655C534.942 323.399 541.515 331.086 545.858 340.047C546.909 342.216 545.184 344.245 543.384 345.25C537.799 346.013 533.755 336.709 531.102 332.805C527.475 327.466 524.494 321.318 520.974 315.948C512.886 315.727 504.283 315.984 496.151 316.099C496.158 320.437 496.944 341.548 495.329 343.811C492.881 345.071 490.566 345.357 488.616 343.076C487.043 338.905 487.702 287.439 488.065 280.696L487.848 279.94ZM495.495 282.631C496.867 285.872 496.204 301.449 496.449 306.796C503.134 306.75 524.06 308.294 528.755 305.513C531.763 303.731 535.09 300.522 535.918 296.996C536.798 293.245 536.429 288.603 534.335 285.305C532.045 281.699 529.332 280.042 525.227 279.159C522.81 278.64 496.869 278.491 495.856 279.277C495.662 279.428 495.689 279.734 495.666 279.939L495.495 282.631Z"/><path fill="#FEFEFE" d="M487.848 279.94C489.297 278.372 494.364 278.516 495.666 279.939L495.495 282.631C495.322 282.607 487.571 281.993 488.527 282.428C488.274 281.995 488.171 281.188 488.065 280.696L487.848 279.94Z"/><path fill="#1B3A6B" d="M443.456 303.302L443.945 308.908C444.09 310.421 444.193 311.062 444.535 312.543C444.101 313.939 444.156 314.332 442.344 315.12C433.209 319.092 424.945 323.838 416.55 329.234C382.684 350.715 356.819 382.734 342.937 420.359C339.033 431.247 335.831 444.393 335.136 455.867C342.766 455.708 350.529 455.381 354.755 463.452L355.305 463.244C357.62 455.119 359.808 446.854 362.88 438.994C376.896 402.762 403.279 372.657 437.359 354.007C441.993 351.429 450.595 346.888 455.447 344.976C457.234 348.22 459.129 350.577 460.997 353.625C363.181 394.704 340.496 495.128 381.263 585.262C395.965 617.768 411.717 644.877 432.501 673.941C427.676 671.882 421.026 669.133 416.095 667.411C409.205 658.676 405.276 651.71 399.651 642.379C381.237 611.832 369.662 584.258 358.315 550.517C356.251 563.243 354.839 567.601 341.602 570.383C344.766 603.251 365.427 635.623 390.579 656.402C414.832 676.481 444.146 689.492 475.307 694.01C479.545 694.599 489.126 695.631 493.131 695.284C495.928 697.929 498.091 701.332 494.558 704.593C493.301 705.013 493.455 705.017 492.157 705.185C483.478 704.52 473.708 704.352 465.234 702.623C397.465 688.799 341.341 639.571 331.323 569.465C327.079 568.48 323.292 567.57 319.254 565.881C305.105 559.856 293.953 548.421 288.285 534.125C282.674 520.065 282.911 504.346 288.942 490.46C296.133 474.233 307.919 464.957 324.115 458.807C325.387 446.674 327.931 434.709 331.706 423.108C346.446 376.704 376.539 342.109 417.791 317.104C426.246 311.979 434.69 307.836 443.456 303.302ZM315.858 540.244C320.425 543.842 325.701 547.295 331.44 548.596C331.64 532.332 331.679 516.067 331.556 499.803C331.507 493.706 331.803 484.145 331.221 478.515C330.186 477.593 330.806 477.892 329.154 477.965C318.675 482.301 311.289 488.379 306.774 499.121C302.969 508.303 303.049 518.636 306.996 527.758C309.148 532.855 311.876 536.438 315.858 540.244Z"/><path fill="#1B3A6B" d="M588.135 303.349C594.191 304.856 605.448 311.082 611.126 314.214C641.599 331.028 667.858 355.1 685.944 385.113C700.532 409.364 709.528 436.563 712.279 464.729C726.014 474.013 735.511 485.102 738.791 501.714C741.754 516.038 738.84 530.951 730.702 543.105C722.51 555.323 709.761 563.747 695.309 566.49C686.8 568.075 676.632 567.545 667.898 567.358C660.991 584.173 654.86 599.318 646.299 615.527C617.79 669.505 581.007 718.734 539.846 763.688C532.278 771.953 523.963 782.111 516.149 789.665C511.269 785.094 504.306 776.573 499.805 771.296C489.512 759.323 479.558 747.063 469.953 734.532C463.507 726.045 457.039 716.636 450.453 708.42C455.338 709.777 460.237 711.082 465.15 712.336C470.92 719.199 476.588 727.362 482.223 734.509C493.24 748.431 504.656 762.034 516.456 775.299C523.878 766.223 531.931 757.943 539.66 749.149C553.862 732.958 567.654 716.412 581.023 699.526C590.691 687.13 603.071 669.111 611.523 655.734C641.701 607.967 676.564 543.693 671.151 485.277C667.208 442.723 647.836 404.566 614.58 377.632C605.557 370.433 595.81 364.19 585.496 359.006C581.485 357.009 575.779 355.098 572.177 352.919C572.282 351.703 572.143 352.09 572.791 351.11C573.358 350.443 573.912 349.764 574.453 349.075C575.835 347.237 576.177 346.523 577.234 344.443C582.267 346.589 587.234 348.887 592.128 351.333C624.393 367.99 650.274 394.81 665.771 427.648C670.263 437.242 673.607 447.782 676.872 457.842C686.873 457.766 692.174 458.3 701.767 460.299C701.548 452.071 698.527 440.184 696.213 432.269C683.575 389.041 655.567 353.986 617.973 329.603C608.573 323.506 599.19 319.086 589.241 314.131C588.394 313.709 588.205 313.518 587.76 312.744C587.82 311.329 587.97 311.157 587.407 309.902L586.058 309.5C589.163 307.76 587.936 307.943 588.135 303.349ZM671.088 558.304C687.983 558.813 697.115 558.657 711.435 549.531C722.606 539.814 729.016 531.361 730.38 516.14C732.557 491.849 712.785 468.908 688.404 467.789C685.279 467.657 682.41 467.653 679.257 467.769C678.956 471.884 680.26 479.449 680.805 483.762C681.572 489.51 681.897 495.308 681.774 501.106C681.555 515.217 679.528 527.049 675.888 540.562C674.467 545.839 672.121 553.163 671.088 558.304Z"/><path fill="#D9B36A" d="M493.131 695.284C493.826 690.225 499.955 683.269 504.234 680.512C525.491 666.815 550.576 685.086 545.781 709.45C544.506 716.167 540.511 722.059 534.743 725.731C528.228 729.875 519.475 731.052 512.02 729.128C505.159 727.39 499.285 722.967 495.719 716.854C493.643 713.234 492.566 709.314 492.157 705.185C493.455 705.017 493.301 705.013 494.558 704.593C498.091 701.332 495.928 697.929 493.131 695.284ZM521.753 721.134C531.786 719.751 538.791 710.487 537.387 700.457C535.983 690.428 526.703 683.443 516.676 684.869C506.681 686.291 499.722 695.535 501.122 705.534C502.522 715.533 511.751 722.512 521.753 721.134Z"/><path fill="#FEFEFE" fill-opacity="0.97647059" d="M585.44 302.609C586.399 302.938 587.146 303.108 588.135 303.349C587.936 307.943 589.163 307.76 586.058 309.5C582.301 309.135 584.517 307.875 584.117 303.766C584.102 303.617 585.111 302.975 585.44 302.609Z"/><path fill="#FEFEFE" fill-opacity="0.3019608" d="M443.945 308.908C445.798 308.417 445.763 308.517 447.719 308.644C447.688 309.336 447.651 310.028 447.608 310.72C446.456 311.368 445.648 311.793 444.535 312.543C444.193 311.062 444.09 310.421 443.945 308.908Z"/><path fill="#FEFEFE" fill-opacity="0.15294118" d="M572.791 351.11C571.26 348.703 572.155 346.831 574.453 349.075C573.912 349.764 573.358 350.443 572.791 351.11Z"/></svg>